<?xml version="1.0" encoding="UTF-8"?>
<svg id="_Слой_1" data-name="Слой 1" xmlns="http://www.w3.org/2000/svg" width="530.41" height="219.31" viewBox="0 0 530.41 219.31">
  <defs>
    <style>
      .cls-1 {
        fill: #f3af4a;
      }

      .cls-2 {
        fill: #fff;
      }
    </style>
  </defs>
  <polygon points="56.22 69.34 27.29 182.96 499.4 219.31 514.26 2.2 56.22 69.34"/>
  <g>
    <g>
      <g>
        <path class="cls-1" d="M102.38,85.25c-2.29,.27-4.57,.54-6.81,.83-2.1,.28-4.21,.58-6.33,.88-.61,3.81-1.3,7.76-2.05,11.75-.81,4.3-1.45,8.63-1.91,12.88-.64,4.88-1.32,9.72-2,14.41-.69,4.74-1.65,9.52-2.84,14.23-1.63,6.35-3.09,13.02-4.31,19.82-1.24,6.88-2.81,13.63-4.65,20.06-.24,1.08-.46,2.39-.64,3.84-.18,1.52-.39,3.04-.62,4.58-.24,1.52-.46,2.9-.7,4.1-.26,1.39-.62,2.4-1.09,3.11-.62,1.13-1.27,1.76-2.05,1.95-.67,.17-1.36,.1-2.09-.19-.2-.08-.37-.2-.52-.35-.09-.02-.19-.07-.28-.11-.16-.08-.3-.15-.45-.21l-.05,.21c-.2,1.01-.25,1.6-.25,1.93,0,.24-.06,.48-.18,.7-1.35,2.31-2.79,3.47-4.26,3.47-.35,0-.7-.07-1.05-.19-1.45-.53-2.65-1.59-3.55-3.16-.26-.52-.43-.95-.54-1.34-.08-.28-.2-.63-.36-1.03-.12-.3-.14-.64-.03-.96,.02-.07,.05-.15,.07-.21-.37-.17-.67-.5-.78-.9-.29-1.1-.5-2.32-.6-3.63-.09-1.34-.05-2.71,.16-4.08,.74-3.28,1.43-6.46,2.07-9.56l1.92-9.35c.02-.11,.07-.23,.11-.33-.01-.11,0-.23,.02-.34,2.56-13.32,4.86-26.64,6.87-39.59,1.89-12.28,3.96-25.15,6.13-38.29-.26,.03-.52,.07-.77,.09-.78,.09-1.57,.23-2.32,.39l-23.42,4.13c-1.51,.27-3.06,.59-4.6,.95l-9.46,1.66c-.62,.19-1.38,.35-2.33,.5-.9,.14-1.63,.25-2.18,.34-.08,.01-.15,.02-.23,.02h-3.44c-.51,0-1.03,.02-1.53,.07-.51,.04-1.03,.1-1.53,.19-1.18,.1-2.25,.24-3.29,.41l-3.3,.55c-.47,.08-.96-.1-1.27-.46-.32-.37-.42-.88-.27-1.34,.05-.11,.07-.25-.09-.52-.39-.69-.67-1.4-.78-2.12-.02-.07-.02-.15-.02-.23,0-1.14,.59-2.1,1.66-2.71,.23-.11,.43-.2,.67-.29-.88-.16-1.58-.32-2.14-.47-1.58-.42-2.9-1.14-3.9-2.14-.06-.06-.12-.14-.17-.2-.86-1.3-.86-2.73,0-4.01,.82-1.18,2.38-2.2,4.77-3.13,.37-.19,.81-.35,1.23-.42,.08-.01,.26-.06,.58-.21,.07-.03,.12-.06,.19-.08,.29-.1,.61-.19,.95-.29,.34-.09,.69-.19,1.07-.28,.63-.18,1.34-.36,2.06-.5,.67-.14,1.35-.29,2.06-.47,.76-.18,1.49-.35,2.19-.5,.67-.12,1.35-.28,2.06-.46l4.63-.85c.7-.18,1.52-.33,2.35-.42,.78-.1,1.53-.19,2.25-.28,.76-.17,1.61-.32,2.42-.41,.71-.09,1.41-.21,2.09-.38,.91-.2,1.77-.35,2.58-.45,.72-.08,1.42-.2,2.09-.37,.48-.1,.83-.18,1.13-.27,.35-.09,.78-.19,1.27-.29,.36-.09,.78-.17,1.19-.23,.33-.03,.63-.1,.95-.18,4.44-1.01,8.9-1.92,13.28-2.69,4.43-.78,8.95-1.36,13.46-1.74,.83-.11,1.73-.1,2.63-.16l.24-1.43c.09-.52,.45-.94,.95-1.09,.47-.15,.99-.03,1.35,.29,.01-.01,.04-.01,.1-.01,1.33-.12,2.51-.14,3.43,.38,.5,.29,.81,.73,.99,1.16,.21,0,.42-.02,.61-.03,.36-.03,.73-.07,1.13-.12,1.4-1.85,2.74-2.86,4.12-3.09,.95-.16,2.53-.03,3.51,2.18,3.02-.38,6.07-.71,9.05-.96,3.31-.27,6.64-.51,9.85-.69,1.01-.08,2.25-.24,3.64-.46,1.4-.23,2.77-.47,4.14-.74,1.4-.28,2.71-.5,3.88-.64,1.36-.16,2.4-.11,3.15,.14,1.08,.24,1.88,.7,2.32,1.4,.41,.67,.54,1.44,.38,2.24-.02,.11-.06,.23-.11,.34,.01,.11,0,.24-.02,.35-.02,.15-.05,.28-.07,.41l2.11-.26c.17-.02,.33-.01,.48,.02,1.42,.33,2.47,.78,3.19,1.39,.83,.7,1.31,1.52,1.39,2.45,.06,.8-.09,1.61-.47,2.42-.32,.7-.76,1.38-1.29,2.02-.09,.1-.18,.19-.29,.26-.2,.15-.42,.32-.62,.52-.32,.32-.68,.63-1.1,.96-.24,.18-.53,.28-.83,.28h-.16c-.07,.34-.28,.65-.59,.86-.88,.59-1.82,1.14-2.81,1.66-1.09,.58-2.38,.97-3.81,1.17-3.09,.28-6.07,.56-9,.83-2.88,.27-5.82,.6-8.75,.96-.09,.01-.17,.01-.26,.01-.14,.07-.28,.11-.45,.12l-.51,.06Z"/>
        <path d="M121.94,64.56c.68,0,1.25,.08,1.7,.23,1.08,.24,1.88,.7,2.32,1.4,.41,.67,.54,1.44,.38,2.24-.02,.11-.06,.23-.11,.34,.01,.11,0,.24-.02,.35-.02,.15-.05,.28-.07,.41l2.11-.26c.06,0,.12-.01,.18-.01,.1,0,.21,.01,.31,.03,1.42,.33,2.47,.78,3.19,1.39,.83,.7,1.31,1.52,1.39,2.45,.06,.8-.09,1.61-.47,2.42-.32,.7-.76,1.38-1.29,2.02-.09,.1-.18,.19-.29,.26-.2,.15-.42,.32-.62,.52-.32,.32-.68,.63-1.1,.96-.24,.18-.53,.28-.83,.28h-.16c-.07,.34-.28,.65-.59,.86-.88,.59-1.82,1.14-2.81,1.66-1.09,.57-2.38,.97-3.81,1.17-3.09,.28-6.07,.56-9,.83-2.87,.27-5.82,.6-8.75,.96-.09,.01-.17,.01-.26,.01-.14,.07-.28,.11-.45,.12l-.51,.06c-2.29,.27-4.57,.54-6.81,.83-2.1,.28-4.21,.57-6.33,.88-.61,3.81-1.3,7.76-2.05,11.75-.81,4.3-1.45,8.63-1.91,12.88-.64,4.88-1.32,9.72-2,14.41-.69,4.74-1.65,9.52-2.84,14.23-1.63,6.35-3.09,13.02-4.31,19.82-1.24,6.88-2.81,13.63-4.65,20.06-.24,1.08-.46,2.39-.64,3.84-.18,1.52-.39,3.04-.62,4.58-.24,1.52-.46,2.9-.7,4.1-.26,1.39-.62,2.4-1.09,3.11-.62,1.13-1.27,1.76-2.05,1.95-.24,.06-.48,.09-.73,.09-.44,0-.89-.1-1.35-.28-.2-.08-.37-.2-.52-.35-.09-.02-.19-.07-.28-.11-.16-.08-.3-.15-.45-.21l-.05,.21c-.2,1.01-.25,1.6-.25,1.93,0,.24-.06,.48-.18,.7-1.35,2.31-2.79,3.47-4.26,3.47-.35,0-.7-.07-1.05-.19-1.45-.53-2.65-1.59-3.55-3.16-.26-.52-.43-.95-.54-1.34-.08-.28-.2-.63-.36-1.03-.12-.3-.14-.64-.03-.96,.02-.07,.05-.15,.07-.21-.37-.17-.67-.5-.78-.9-.29-1.1-.5-2.32-.6-3.63-.09-1.34-.05-2.71,.16-4.08,.74-3.28,1.43-6.46,2.07-9.56l1.92-9.35c.02-.11,.07-.23,.11-.33-.01-.11,0-.23,.02-.34,2.56-13.32,4.86-26.64,6.87-39.59,1.89-12.28,3.96-25.15,6.13-38.29-.26,.03-.52,.07-.77,.09-.78,.09-1.57,.23-2.32,.39l-23.42,4.13c-1.51,.27-3.06,.59-4.6,.95l-9.46,1.66c-.62,.19-1.38,.35-2.33,.5-.9,.14-1.63,.25-2.18,.34-.08,.01-.15,.02-.23,.02h-3.44c-.51,0-1.03,.02-1.53,.07-.51,.05-1.03,.1-1.53,.19-1.18,.1-2.25,.24-3.29,.41l-3.3,.55c-.07,.01-.15,.02-.22,.02-.4,0-.79-.18-1.05-.48-.32-.37-.42-.88-.27-1.34,.05-.11,.07-.25-.09-.52-.39-.69-.67-1.4-.78-2.12-.02-.07-.02-.15-.02-.23,0-1.14,.59-2.1,1.66-2.71,.23-.11,.43-.2,.67-.29-.88-.16-1.58-.32-2.14-.47-1.58-.42-2.9-1.14-3.9-2.14-.06-.06-.12-.13-.17-.2-.86-1.3-.86-2.73,0-4.01,.82-1.18,2.38-2.2,4.77-3.13,.37-.19,.81-.35,1.23-.42,.08-.01,.26-.06,.58-.21,.07-.03,.12-.06,.19-.08,.29-.1,.61-.19,.95-.29,.34-.09,.69-.19,1.07-.28,.63-.18,1.34-.36,2.06-.5,.67-.14,1.35-.29,2.06-.47,.76-.18,1.49-.35,2.19-.5,.67-.12,1.35-.28,2.06-.46l4.63-.85c.7-.18,1.52-.33,2.35-.42,.78-.1,1.53-.19,2.25-.28,.76-.17,1.61-.32,2.42-.41,.71-.09,1.41-.21,2.09-.38,.91-.2,1.77-.35,2.58-.45,.72-.08,1.42-.2,2.09-.37,.49-.1,.83-.18,1.13-.27,.35-.09,.78-.19,1.27-.29,.36-.09,.78-.17,1.19-.23,.33-.03,.63-.1,.95-.18,4.44-1.01,8.9-1.92,13.28-2.69,4.43-.78,8.95-1.36,13.46-1.74,.83-.11,1.73-.1,2.63-.16l.24-1.43c.09-.52,.45-.94,.95-1.09,.14-.04,.28-.06,.42-.06,.34,0,.68,.12,.93,.36,.01-.01,.05-.01,.1-.01,.45-.04,.88-.07,1.3-.07,.81,0,1.53,.11,2.13,.45,.5,.29,.81,.73,.99,1.16,.21,0,.42-.02,.61-.03,.36-.03,.73-.07,1.13-.12,1.4-1.85,2.74-2.86,4.12-3.09,.17-.03,.36-.05,.56-.05,.93,0,2.14,.41,2.95,2.22,3.02-.38,6.07-.71,9.05-.96,3.32-.27,6.64-.51,9.85-.69,1.01-.08,2.25-.24,3.64-.46,1.4-.23,2.77-.47,4.14-.74,1.4-.28,2.71-.5,3.88-.64,.53-.06,1.01-.09,1.44-.09m0-3.38c-.56,0-1.18,.04-1.83,.11-1.32,.17-2.71,.4-4.16,.69-1.34,.26-2.69,.51-4.01,.72-1.28,.21-2.43,.36-3.33,.43-3.05,.17-6.38,.4-9.9,.69-2.29,.19-4.69,.43-7.14,.72-1.21-1.29-2.8-2-4.58-2-.37,0-.74,.03-1.12,.09-1.63,.27-3.15,1.09-4.6,2.49h-.02c-1.06-.61-2.3-.91-3.8-.91-.22,0-.44,0-.68,.02-.52-.19-1.08-.29-1.65-.29-.48,0-.96,.07-1.42,.21-1.3,.42-2.33,1.33-2.89,2.52-.09,0-.18,.02-.28,.03-4.55,.38-9.15,.97-13.69,1.77-4.46,.79-8.99,1.71-13.45,2.73h-.03s-.03,.02-.03,.02c-.17,.04-.35,.09-.48,.1h-.05s-.05,.01-.05,.01c-.51,.07-1.03,.16-1.49,.28-.53,.11-.99,.22-1.37,.32l-.08,.02-.07,.02c-.18,.05-.5,.12-.82,.19h-.07s-.07,.03-.07,.03c-.51,.13-1.05,.23-1.62,.29-.99,.12-1.97,.29-2.95,.51h-.04s-.04,.02-.04,.02c-.51,.13-1.08,.23-1.69,.31-.79,.09-1.71,.24-2.57,.42l-.57,.07c-.49,.06-1,.12-1.51,.19-.93,.1-1.85,.26-2.66,.47l-4.52,.83-.11,.02-.11,.03c-.71,.18-1.31,.32-1.85,.42h-.04s-.04,.01-.04,.01c-.73,.15-1.49,.33-2.28,.52-.7,.18-1.34,.33-1.95,.45-.66,.12-1.43,.31-2.24,.54-.29,.07-.55,.14-.82,.21l-.27,.07h-.05s-.05,.03-.05,.03l-.19,.06c-.31,.09-.61,.18-.89,.28-.17,.06-.34,.13-.52,.21-.72,.15-1.31,.39-1.74,.6-3,1.19-4.96,2.56-6.17,4.3l-.02,.03-.02,.03c-1.61,2.42-1.62,5.32,0,7.76,.22,.32,.44,.57,.6,.73,.82,.82,1.77,1.5,2.83,2.04-.07,.38-.11,.78-.11,1.18,0,.16,0,.49,.09,.9,.14,.77,.38,1.54,.73,2.3-.02,1.15,.37,2.28,1.14,3.19,.94,1.08,2.25,1.67,3.63,1.67,.26,0,.52-.02,.78-.06l3.31-.55c.97-.16,1.96-.28,3.02-.37h.15s.15-.04,.15-.04c.42-.07,.88-.12,1.24-.15,.41-.04,.82-.05,1.23-.05h3.44c.32,0,.57-.04,.7-.06h.03s.05-.01,.05-.01c.53-.09,1.24-.2,2.12-.33,1.05-.16,1.89-.33,2.61-.54l9.27-1.62,.09-.02,.09-.02c1.45-.34,2.94-.65,4.43-.91l21.81-3.84c-1.9,11.58-3.71,22.89-5.37,33.68-2.05,13.21-4.35,26.49-6.85,39.46-.02,.1-.04,.2-.05,.31-.03,.1-.06,.21-.08,.33l-1.91,9.33c-.66,3.18-1.35,6.38-2.06,9.49l-.03,.13-.02,.13c-.23,1.57-.29,3.19-.19,4.8,.12,1.53,.35,2.95,.7,4.27,.13,.47,.32,.9,.57,1.3,.05,.4,.16,.8,.31,1.19,.15,.38,.22,.59,.24,.66,.18,.63,.43,1.26,.77,1.94l.04,.09,.05,.09c1.29,2.24,3.13,3.85,5.32,4.65,.75,.27,1.48,.4,2.21,.4,2.77,0,5.18-1.73,7.18-5.15,.04-.07,.08-.14,.11-.21h.05c.53,0,1.06-.07,1.57-.2,1.67-.41,3.03-1.55,4.12-3.48,.69-1.09,1.19-2.48,1.52-4.24,.26-1.33,.51-2.88,.72-4.21,.19-1.31,.44-3,.64-4.7,.15-1.21,.35-2.4,.57-3.42,1.86-6.54,3.44-13.36,4.69-20.28,1.19-6.67,2.63-13.26,4.25-19.58,1.24-4.87,2.21-9.78,2.91-14.59,.77-5.3,1.42-10.03,2-14.45v-.04s.01-.04,.01-.04c.44-4.13,1.07-8.37,1.87-12.61,.59-3.13,1.15-6.27,1.67-9.38,1.28-.18,2.56-.36,3.84-.53,2.28-.3,4.66-.58,6.76-.83l.43-.05c.28-.02,.55-.07,.81-.15,0,0,0,0,0,0,3.04-.37,5.96-.69,8.64-.95l3.65-.34c1.75-.16,3.52-.33,5.34-.49h.08s.08-.02,.08-.02c1.82-.26,3.47-.77,4.91-1.53,1.09-.57,2.13-1.19,3.11-1.84,.31-.21,.6-.45,.85-.72,.32-.15,.62-.33,.91-.54,.54-.41,1.02-.82,1.45-1.26,.03-.03,.08-.07,.15-.12,.42-.28,.71-.58,.9-.79l.04-.05,.04-.05c.73-.89,1.32-1.81,1.75-2.75,.61-1.31,.87-2.68,.78-4.08-.16-1.87-1.05-3.52-2.59-4.8-1.12-.94-2.61-1.63-4.56-2.08-.16-.55-.39-1.08-.69-1.58-.65-1.03-1.9-2.33-4.32-2.9-.76-.23-1.61-.34-2.59-.34h0Z"/>
      </g>
      <g>
        <path class="cls-1" d="M158.44,102.25c.19,.99,.09,1.97-.28,2.9-.41,1.03-1.14,1.78-2.11,2.2-1.66,.83-3.63,1.08-5.8,.71-1.7-.28-3.41-.26-5.06,.07-1.4,.2-2.74,.34-4.09,.44-1.49,.1-2.97-.06-4.4-.46-1.69-.43-3.45-.69-5.19-.78-1.53-.08-3.09-.3-4.65-.7l-1.58,3.46c-.64,1.38-1.25,2.74-1.84,4.1-.57,1.32-1.09,2.67-1.54,4-.47,1.15-.88,2.24-1.23,3.35-.18,.56-.35,1.13-.51,1.68,1.56,.07,3.1,.06,4.59-.05,2.12-.14,4.36-.2,6.69-.2h.83c.38,0,.77,.16,1.03,.45,.37,.42,.94,.92,1.44,.92,.42,0,.81,.18,1.07,.51,.26,.32,.37,.74,.28,1.15-.06,.32-.08,.67-.05,1.04,.06,.55,.08,1.09,.08,1.63,0,.78-.17,1.43-.51,1.94-.11,.17-.26,.32-.41,.45,.25,.41,.47,.86,.68,1.35,.32,.8,.53,1.66,.63,2.56,.11,.94,.08,1.8-.08,2.58-.2,.9-.58,1.65-1.14,2.2-.06,.06-.11,.11-.18,.16-1.24,.86-2.69,1.12-4.22,.76-.89-.21-1.75-.18-2.6,.11-1.01,.24-1.93,.36-2.83,.41-1,.06-2-.08-2.99-.42-.07-.01-.12-.05-.18-.07-.91-.46-1.86-.71-2.81-.76-.9-.03-1.83-.24-2.74-.63-.21,1.59-.37,3.17-.48,4.71-.14,1.82-.16,3.59-.07,5.25,0,2.4,.41,4.35,1.21,5.89,.35,.78,.79,1.49,1.33,2.2,.62,.61,1.29,1.12,1.97,1.5,.65,.43,.94,.53,1.03,.55,.1,.02,.2,.06,.29,.1,.65,.33,1.01,.47,1.22,.54h.08c.25,0,.48,.07,.69,.18,.14,.02,.27,.07,.41,.12,.16,.02,.32,.06,.45,.11,.2,.01,.43,.06,.6,.15,.16,.08,.3,.12,.41,.12,.43,0,.87,.06,1.35,.18,.07,.01,.14,.03,.19,.06,.07,.01,.27,.03,.72,.03h1.59c.51-.14,1.13-.06,1.54-.2,.12-.03,.25-.06,.38-.07,.19-.09,.39-.14,.61-.14l.38-.05c.2-.1,.46-.19,.78-.23,.86-.23,1.6-.59,2.24-1.09,.07-.06,.15-.1,.24-.14,.45-.24,.88-.51,1.26-.81l1.38-1.09c.41-.34,.79-.67,1.12-1,.39-.39,.79-.73,1.17-1.03l.48-.48c.16-.17,.34-.3,.53-.39,.25-.21,.55-.43,.94-.62,.68-.51,1.43-.77,2.25-.77,.21,0,.43,.06,.62,.15,.44,.23,.88,.5,1.31,.82,.14,.09,.25,.21,.34,.36,.08,.05,.16,.11,.23,.18,.14,.14,.27,.27,.41,.39,.03-.03,.06-.07,.09-.1,.08-.16,.17-.3,.26-.43,.06-.09,.12-.2,.18-.33,.07-.14,.16-.26,.26-.36,.02-.02,.12-.14,.29-.47,.08-.16,.19-.29,.33-.42,.91-.81,1.77-1.36,2.63-1.71,.83-.51,1.83-.63,2.88-.37,.08,.01,.15,.03,.21,.07,.99,.43,1.66,1.05,1.97,1.85,.02,.05,.09,.15,.15,.24,.18,.26,.29,.56,.34,.88,.16,.35,.25,.69,.29,1.01,.1,.28,.15,.58,.15,.87v1.92c0,.37-.15,.72-.41,.98-.06,.07-.11,.12-.15,.16-.02,.06-.07,.14-.14,.21,.18,.25,.28,.54,.28,.85,0,.33-.05,.61-.14,.86-.01,.2-.07,.42-.15,.6-.12,.24-.21,.44-.29,.63-.04,.34-.17,.7-.39,1.15-.18,.46-.41,.86-.67,1.16-.79,1.34-1.82,2.62-3.07,3.77-.76,.76-1.63,1.49-2.57,2.12-.9,.62-1.83,1.21-2.74,1.76-.97,.59-1.94,1.09-2.9,1.52l-2.87,1.31c-.54,.21-1.03,.39-1.54,.59-.52,.19-1.06,.37-1.61,.56l-1.11,.41c-.14,.06-.29,.08-.44,.08h-.19l-.61,.2c-.14,.05-.27,.07-.42,.07-.2,.08-.42,.11-.65,.14l-1.5,.37-.94,.16c-.08,.01-.15,.02-.23,.02l-.38,.07c-.15,.05-.29,.07-.44,.07h-.73l-.86,.12c-.07,.01-.14,.01-.2,.01h-.62c-.36,.1-.74,.15-1.16,.15-.28,0-.54-.09-.76-.23-.15,.06-.32,.08-.48,.08h-1.65c-.15,0-.29-.02-.44-.07l-.19-.07h-.61c-.2,0-.41-.05-.59-.14,0,.01-.08,0-.24,0-.11,0-.23-.01-.33-.05l-1.5-.37c-.35-.01-.67-.06-.94-.15-.21-.01-.42-.06-.62-.12-.15,0-.35-.02-.48-.07l-.72-.24-.72-.12c-.15-.02-.28-.07-.41-.14-.08-.01-.15-.03-.21-.06l-.42-.14c-.06-.02-.12-.04-.18-.08-.23-.11-.32-.14-.32-.14-.16,0-.19-.01-.33-.07-.6-.19-1.23-.45-1.85-.73-.58-.27-1.08-.48-1.52-.67-.68-.34-1.25-.64-1.83-.98-.53-.3-1.05-.59-1.58-.85-.12-.07-.25-.16-.36-.26-.12-.14-.28-.26-.47-.38l-.82-.55-.79-.62s-.07-.06-.11-.1c-.23-.23-.33-.29-.34-.29-.1-.06-.26-.17-.35-.25l-2.47-2.48s-.07-.07-.1-.11c-.38-.48-.74-.96-1.08-1.44-.3-.44-.63-.87-.98-1.31-.32-.45-.5-.79-.62-1.12-.06-.14-.15-.3-.27-.48l-.38-.63c-.2-.26-.34-.55-.38-.86-.58-.97-1.03-2.02-1.32-3.1-.2-.51-.36-1.03-.46-1.54-.07-.37-.18-.76-.34-1.14-.23-.56-.37-1.18-.44-1.83-.03-.45-.1-.88-.18-1.3-.19-.97-.32-1.94-.37-2.88-.05-.85-.11-1.73-.19-2.62v-2.82c-.01-.91,.03-1.86,.14-2.82,.18-1.75,.36-3.44,.55-5.1,.18-1.69,.47-3.41,.85-5.1,.37-1.66,.77-3.3,1.17-4.92,.42-1.61,.86-3.25,1.32-4.9,1.94-6.2,4.32-12.54,7.07-18.87,.16-.48,.47-1.23,.91-2.16,.42-.88,.77-1.6,1.05-2.15,.03-.08,.08-.16,.14-.23,2.86-3.77,5.37-7.68,7.43-11.61,.23-.45,.69-.73,1.18-.74,.51-.01,.97,.24,1.23,.68,.02,.01,.12,.07,.35,.08,.85,.06,1.54,.2,2.13,.44,.14,.05,.25,.12,.36,.2,.47,.39,1.25,1.27,1.06,2.9,.09,.01,.19,.02,.29,.05l1.21-.9c.45-.34,.89-.61,1.32-.79,.24-.1,.46-.23,.67-.36,.05-.03,.1-.06,.15-.09,1.49-.73,3.17-.73,4.17,0,.11,.05,.21,.11,.3,.18,.27,.16,.47,.39,.59,.68,.37,.44,.48,.88,.51,1.21,.05,.28,.07,.58,.08,.89,2.76,.11,5.55,.11,8.31,0,3.26-.14,6.63-.21,10.02-.21h1.24c.28,0,.55,.09,.79,.25,.96,.67,2.01,.99,3.19,.99,.42,0,.81,.19,1.07,.51,.26,.32,.37,.74,.29,1.15-.07,.29-.06,.63,0,1.01,.11,.67,.14,1.3,.08,1.87-.07,.74-.32,1.35-.72,1.85-.11,.14-.26,.27-.44,.39,.33,.34,.62,.71,.89,1.14,.55,.89,.91,1.79,1.08,2.68Z"/>
        <path d="M118.25,85.46c.49,0,.94,.25,1.2,.68,.02,.01,.12,.07,.35,.08,.85,.06,1.54,.2,2.13,.44,.14,.05,.25,.12,.36,.2,.47,.39,1.25,1.27,1.06,2.9,.09,.01,.19,.02,.29,.05l1.21-.9c.45-.34,.89-.61,1.32-.79,.24-.1,.46-.23,.67-.36,.05-.03,.1-.06,.15-.09,.74-.37,1.54-.55,2.27-.55s1.4,.18,1.9,.55c.11,.05,.21,.11,.3,.18,.27,.16,.47,.39,.59,.68,.37,.44,.48,.88,.51,1.21,.05,.28,.07,.57,.08,.89,1.38,.06,2.77,.08,4.15,.08s2.77-.03,4.15-.08c3.26-.14,6.63-.21,10.02-.21h1.24c.28,0,.55,.09,.79,.25,.96,.67,2.01,.99,3.19,.99,.42,0,.81,.19,1.07,.51,.26,.32,.37,.74,.29,1.15-.07,.29-.06,.63,0,1.01,.11,.67,.13,1.3,.08,1.87-.07,.74-.32,1.35-.72,1.85-.11,.13-.26,.27-.44,.39,.33,.34,.62,.71,.89,1.14,.55,.89,.91,1.79,1.08,2.68,.19,.99,.09,1.97-.28,2.9-.41,1.03-1.14,1.78-2.11,2.2-1.16,.58-2.47,.88-3.89,.88-.62,0-1.25-.06-1.91-.17-.79-.13-1.58-.2-2.36-.2-.91,0-1.81,.09-2.7,.26-1.4,.2-2.74,.34-4.09,.44-.29,.02-.58,.03-.88,.03-1.19,0-2.37-.17-3.52-.49-1.69-.43-3.45-.69-5.19-.78-1.53-.08-3.09-.3-4.65-.7l-1.58,3.46c-.64,1.38-1.25,2.74-1.84,4.1-.57,1.32-1.09,2.67-1.54,4-.47,1.15-.88,2.24-1.23,3.35-.18,.56-.35,1.13-.51,1.68,.65,.03,1.29,.04,1.93,.04,.9,0,1.79-.03,2.66-.09,2.12-.14,4.36-.2,6.69-.2h.83c.38,0,.77,.16,1.03,.45,.37,.42,.94,.92,1.44,.92,.42,0,.81,.18,1.07,.51,.26,.32,.37,.74,.28,1.15-.06,.32-.08,.67-.05,1.04,.06,.55,.08,1.09,.08,1.63,0,.78-.17,1.43-.51,1.94-.11,.17-.26,.32-.41,.45,.25,.41,.47,.86,.68,1.35,.32,.8,.53,1.66,.63,2.56,.11,.94,.08,1.8-.08,2.58-.2,.9-.57,1.65-1.14,2.2-.06,.06-.11,.11-.18,.16-.88,.61-1.86,.91-2.9,.91-.43,0-.87-.05-1.31-.16-.38-.09-.76-.14-1.13-.14-.5,0-.99,.08-1.48,.25-1.01,.24-1.93,.36-2.83,.41-.15,0-.29,.01-.44,.01-.85,0-1.7-.14-2.55-.43-.07-.01-.12-.05-.18-.07-.91-.46-1.86-.71-2.81-.76-.9-.03-1.83-.24-2.74-.63-.21,1.59-.37,3.17-.48,4.71-.14,1.82-.16,3.59-.07,5.25,0,2.4,.41,4.35,1.21,5.89,.35,.78,.79,1.49,1.33,2.2,.62,.61,1.29,1.12,1.97,1.5,.65,.43,.94,.53,1.03,.55,.1,.02,.2,.06,.29,.1,.65,.33,1.01,.47,1.22,.54h.08c.25,0,.49,.07,.69,.18,.13,.02,.27,.07,.41,.12,.16,.02,.32,.06,.45,.11,.2,.01,.43,.06,.6,.15,.16,.08,.3,.12,.41,.12,.43,0,.87,.06,1.35,.18,.07,.01,.14,.03,.19,.06,.07,.01,.27,.03,.72,.03h1.59c.51-.13,1.13-.06,1.54-.2,.12-.03,.25-.06,.38-.07,.19-.09,.39-.14,.61-.14l.38-.05c.2-.1,.46-.19,.78-.23,.86-.23,1.6-.59,2.24-1.09,.07-.06,.15-.1,.24-.14,.45-.24,.88-.51,1.26-.81l1.38-1.09c.41-.34,.79-.67,1.12-1,.39-.39,.79-.73,1.17-1.03l.48-.49c.16-.17,.34-.3,.53-.39,.25-.21,.55-.43,.94-.62,.68-.51,1.43-.77,2.25-.77,.21,0,.43,.06,.62,.15,.44,.23,.88,.5,1.31,.82,.14,.09,.25,.21,.34,.36,.08,.05,.16,.11,.23,.18,.14,.13,.27,.27,.41,.39,.03-.03,.06-.07,.09-.1,.08-.16,.17-.3,.26-.43,.06-.09,.12-.2,.18-.33,.07-.14,.16-.26,.26-.36,.02-.02,.12-.14,.29-.47,.08-.16,.19-.29,.33-.42,.91-.81,1.77-1.36,2.63-1.71,.55-.34,1.17-.5,1.83-.5,.34,0,.69,.04,1.04,.13,.08,.01,.15,.03,.21,.07,.99,.43,1.66,1.05,1.97,1.85,.02,.05,.09,.15,.15,.24,.18,.26,.29,.56,.34,.88,.16,.35,.25,.69,.29,1.01,.1,.28,.15,.58,.15,.87v1.92c0,.37-.15,.72-.41,.98-.06,.07-.11,.12-.15,.16-.02,.06-.07,.14-.13,.21,.18,.25,.28,.54,.28,.85,0,.33-.05,.61-.14,.86-.01,.2-.07,.42-.15,.6-.12,.24-.21,.44-.29,.63-.05,.34-.17,.7-.39,1.15-.18,.46-.41,.86-.67,1.16-.79,1.34-1.82,2.62-3.07,3.77-.76,.76-1.63,1.49-2.57,2.12-.9,.62-1.83,1.21-2.74,1.76-.97,.59-1.94,1.09-2.9,1.52l-2.87,1.31c-.54,.21-1.03,.39-1.54,.59-.52,.19-1.06,.37-1.61,.56l-1.1,.41c-.14,.06-.29,.08-.44,.08h-.19l-.61,.2c-.13,.05-.27,.07-.42,.07-.2,.08-.42,.11-.65,.13l-1.5,.37-.94,.16c-.08,.01-.15,.02-.23,.02l-.38,.07c-.15,.05-.29,.07-.44,.07h-.73l-.86,.12c-.07,.01-.14,.01-.2,.01h-.62c-.36,.1-.74,.15-1.16,.15-.28,0-.54-.09-.76-.23-.15,.06-.32,.08-.49,.08h-1.65c-.15,0-.29-.02-.44-.07l-.19-.07h-.61c-.2,0-.41-.05-.59-.14,0,0,0,0-.03,0-.04,0-.11,0-.21,0-.11,0-.23-.01-.33-.05l-1.5-.37c-.35-.01-.67-.06-.94-.15-.21-.01-.42-.06-.62-.12-.15,0-.35-.02-.48-.07l-.72-.24-.72-.12c-.15-.02-.28-.07-.41-.13-.08-.01-.15-.03-.21-.06l-.42-.14c-.06-.02-.12-.04-.18-.08-.23-.11-.32-.14-.32-.14-.16,0-.19-.01-.33-.07-.6-.19-1.23-.45-1.85-.73-.57-.27-1.08-.48-1.52-.67-.68-.34-1.25-.64-1.83-.98-.53-.3-1.05-.59-1.58-.85-.12-.07-.25-.16-.36-.26-.12-.14-.28-.26-.47-.38l-.82-.55-.79-.62s-.07-.06-.11-.1c-.23-.23-.33-.29-.34-.29-.1-.06-.26-.17-.35-.25l-2.47-2.48s-.07-.07-.1-.11c-.38-.49-.74-.96-1.08-1.44-.3-.44-.63-.87-.98-1.31-.32-.45-.5-.79-.62-1.12-.06-.13-.15-.3-.27-.48l-.38-.63c-.2-.26-.34-.55-.38-.86-.58-.97-1.03-2.02-1.32-3.1-.2-.51-.36-1.03-.46-1.54-.07-.37-.18-.76-.34-1.14-.23-.56-.37-1.18-.44-1.83-.03-.45-.1-.88-.18-1.3-.19-.97-.32-1.94-.37-2.87-.05-.85-.11-1.73-.19-2.62v-2.82c-.01-.91,.03-1.86,.14-2.82,.18-1.75,.36-3.44,.55-5.1,.18-1.69,.47-3.41,.85-5.1,.37-1.66,.77-3.3,1.17-4.92,.42-1.61,.86-3.25,1.32-4.9,1.94-6.2,4.32-12.54,7.07-18.87,.16-.49,.47-1.23,.91-2.16,.42-.88,.77-1.6,1.05-2.15,.03-.08,.08-.16,.14-.23,2.86-3.77,5.37-7.68,7.43-11.61,.23-.45,.69-.73,1.18-.74,.01,0,.02,0,.03,0m0-3.38h-.1c-1.76,.04-3.33,1.03-4.12,2.58-1.97,3.75-4.35,7.48-7.09,11.08-.2,.26-.38,.54-.52,.85-.29,.57-.64,1.29-1.06,2.17-.48,1.01-.81,1.8-1.02,2.4-2.79,6.44-5.19,12.86-7.14,19.08l-.02,.05v.05c-.48,1.67-.93,3.35-1.35,4.96-.44,1.74-.84,3.42-1.2,5.02-.42,1.9-.72,3.74-.91,5.48-.19,1.64-.37,3.35-.55,5.11-.11,1.02-.16,2.09-.16,3.16v2.83s.01,.14,.01,.14v.14c.1,.96,.16,1.77,.2,2.5,.07,1.12,.21,2.24,.43,3.35,.07,.35,.11,.63,.13,.9v.05s0,.05,0,.05c.1,.96,.32,1.88,.66,2.73,.08,.19,.13,.35,.15,.49,.13,.69,.33,1.35,.58,2.01,.32,1.14,.78,2.25,1.37,3.31,.16,.51,.41,1.01,.73,1.46l.3,.5,.05,.08,.02,.04c.23,.55,.53,1.08,.94,1.67l.06,.08,.06,.08c.36,.45,.62,.8,.85,1.13,.34,.49,.72,.99,1.19,1.59,.15,.2,.29,.34,.36,.41l2.49,2.5,.08,.08,.09,.08c.17,.15,.37,.3,.57,.43,.1,.09,.23,.22,.41,.35l.74,.58,.1,.08,.11,.07,.81,.54,.11,.1c.31,.28,.65,.52,1,.71l.06,.03,.06,.03c.42,.21,.86,.44,1.38,.74,.57,.33,1.19,.67,2,1.07l.11,.06,.11,.05c.38,.16,.85,.35,1.37,.6,.81,.37,1.51,.65,2.14,.85,.18,.07,.36,.12,.53,.17,.08,.04,.15,.06,.19,.08l.11,.04,.09,.03,.42,.14s.09,.03,.15,.05c.31,.12,.63,.21,.96,.26l.46,.08,.49,.16c.34,.11,.67,.17,.96,.2,.19,.05,.37,.08,.56,.11,.34,.08,.69,.14,1.07,.17l1.12,.28c.28,.08,.57,.13,.86,.15,.38,.1,.78,.15,1.17,.15h.11c.37,.09,.75,.13,1.13,.13h1.65s.05,0,.07,0c.38,.1,.77,.15,1.17,.15,.55,0,1.06-.05,1.55-.15h.23c.13,0,.39,0,.71-.05l.6-.09h.49c.4,0,.79-.05,1.18-.15h.05c.12-.02,.21-.03,.27-.04h.04s.07-.02,.07-.02l.94-.16,.13-.02,.12-.03,1.28-.32c.21-.03,.45-.07,.7-.13,.29-.04,.57-.11,.84-.2l.14-.05c.43-.04,.85-.13,1.24-.28l1.03-.38,.42-.14c.42-.14,.83-.29,1.23-.43,.54-.2,1.05-.39,1.62-.61l.08-.03,.08-.03,2.87-1.31c1.07-.48,2.17-1.06,3.25-1.71,1.08-.66,2.03-1.27,2.91-1.87,1.04-.7,2.08-1.56,2.99-2.46,1.39-1.28,2.57-2.72,3.51-4.28,.38-.5,.71-1.08,.97-1.72,.25-.53,.43-1.02,.55-1.5,.01-.03,.03-.05,.04-.08l.06-.11,.05-.11c.17-.4,.3-.82,.37-1.25,.13-.49,.2-1.02,.2-1.56,0-.08,0-.17,0-.25,.27-.6,.41-1.26,.41-1.95v-1.92c0-.57-.08-1.13-.23-1.66-.08-.41-.19-.82-.34-1.21-.15-.61-.4-1.2-.74-1.71-.51-1.09-1.53-2.44-3.57-3.34-.3-.14-.61-.24-.93-.3-.58-.13-1.16-.2-1.73-.2-1.18,0-2.33,.29-3.34,.85-1.1,.48-2.16,1.17-3.23,2.1-.01,0-.02-.01-.03-.02l-.05-.03-.05-.02c-.65-.31-1.36-.47-2.06-.47-1.44,0-2.83,.44-4.03,1.26-.37,.2-.73,.44-1.06,.7-.38,.23-.73,.51-1.05,.85l-.3,.3c-.46,.36-.9,.76-1.32,1.17l-.02,.02-.02,.02c-.21,.22-.53,.49-.82,.73l-1.35,1.07c-.18,.14-.39,.28-.63,.41-.31,.14-.61,.33-.87,.54-.23,.18-.51,.32-.84,.42-.3,.05-.6,.12-.88,.22-.35,.03-.69,.1-1.02,.2-.13,.02-.26,.05-.38,.09-.04,0-.08,0-.12,0-.24,.01-.56,.03-.92,.09h-1.26c-.05,0-.1,0-.14,0-.01,0-.02,0-.03,0-.5-.12-.99-.2-1.48-.24-.32-.12-.63-.19-.9-.23-.09-.02-.18-.05-.27-.07-.06-.02-.12-.04-.18-.06-.35-.14-.72-.25-1.1-.3-.12-.05-.28-.13-.49-.24s-.45-.2-.68-.28c-.06-.04-.16-.09-.29-.18l-.1-.07-.1-.06c-.36-.2-.73-.47-1.08-.8-.33-.46-.59-.89-.79-1.34l-.04-.09-.05-.09c-.55-1.05-.82-2.5-.82-4.32v-.18c-.09-1.53-.07-3.15,.06-4.82,.02-.31,.05-.61,.07-.92,.35,.06,.71,.18,1.06,.36l.13,.07,.08,.03c.14,.06,.32,.14,.54,.2,1.15,.37,2.32,.57,3.5,.57,.21,0,.42,0,.63-.02,1.12-.06,2.24-.22,3.41-.49l.17-.04,.16-.06c.14-.05,.26-.07,.38-.07,.1,0,.21,.01,.34,.04,.71,.17,1.41,.25,2.1,.25,1.72,0,3.39-.52,4.83-1.51,.27-.18,.5-.4,.66-.56,.99-.96,1.68-2.27,2.04-3.84v-.03s.01-.03,.01-.03c.24-1.16,.28-2.39,.12-3.66-.13-1.13-.4-2.25-.81-3.32,.29-.78,.44-1.64,.44-2.58,0-.69-.03-1.34-.1-1.98,0,0,0-.04,0-.08,.27-1.36-.1-2.81-.98-3.89-.69-.86-1.65-1.44-2.72-1.66-.88-.94-2.13-1.48-3.45-1.48h-.83c-2.26,0-4.46,.06-6.53,.19,.04-.1,.08-.2,.12-.3l.04-.1,.03-.1c.43-1.27,.92-2.53,1.44-3.74,.61-1.41,1.19-2.72,1.8-4.02l.48-1.06c.83,.12,1.66,.2,2.5,.24,1.53,.08,3.04,.3,4.49,.67,1.44,.4,2.91,.61,4.39,.61,.37,0,.74-.01,1.1-.04,1.6-.12,2.98-.27,4.35-.47h.08s.08-.03,.08-.03c.67-.13,1.36-.2,2.05-.2,.6,0,1.21,.05,1.81,.15,.82,.14,1.65,.21,2.46,.21,1.92,0,3.71-.4,5.32-1.2,1.75-.78,3.1-2.21,3.82-4.02,.61-1.51,.77-3.17,.46-4.79-.21-1.09-.61-2.18-1.19-3.24,.22-.59,.36-1.21,.43-1.87,.08-.85,.05-1.76-.1-2.68,.22-1.36-.15-2.74-1.02-3.8-.91-1.11-2.25-1.74-3.69-1.74-.49,0-.87-.12-1.26-.39l-.03-.02-.03-.02c-.8-.53-1.72-.81-2.66-.81h-1.24c-3.28,0-6.7,.07-10.16,.22-1.33,.05-2.68,.08-4.01,.08-.5,0-1,0-1.49-.01-.11-.2-.23-.4-.37-.59-.38-.68-.93-1.26-1.58-1.69-.16-.11-.32-.21-.49-.3-1.02-.66-2.26-1-3.61-1-1.27,0-2.57,.31-3.76,.9l-.29,.14-.12,.09s0,0,0,0c-.19-.21-.4-.41-.62-.59l-.11-.09-.12-.08c-.19-.13-.57-.4-1.1-.59-.65-.25-1.35-.44-2.12-.55-.79-.56-1.74-.87-2.76-.87h0Z"/>
      </g>
      <g>
        <path class="cls-1" d="M223.94,90.95c.44,.44,.53,1.12,.23,1.66-.25,.42-.68,.68-1.15,.7-.03,.07-.08,.15-.14,.21-.46,.9-.89,1.44-1.35,1.76-.06,.02-.1,.06-.15,.08-.74,.37-1.36,.37-1.8,.27-.42-.03-.9-.18-1.54-.44-.14-.03-.27-.08-.38-.14,.32,.43,.58,.89,.8,1.39,.28,.58,.39,1.2,.32,1.79-.06,.39-.15,.77-.26,1.13-.27,.67-.58,1.16-.95,1.56-.36,.48-.94,.86-1.73,1.12-.14,.05-.28,.07-.44,.07h-.9c-.32,.08-.69,.12-1.1,.14-.11,.06-.24,.1-.37,.12-.19,.1-.42,.16-.64,.16h-1.51c-.41,0-.82,.02-1.23,.06-.42,.05-.83,.11-1.25,.19h-.03c-.2,.11-.42,.16-.64,.16h-.14c-.21,.09-.44,.14-.69,.14h-.06c-.14,.06-.28,.1-.45,.12-.12,.06-.26,.1-.38,.12-.21,.1-.43,.14-.6,.16-.14,.06-.27,.1-.41,.12-.5,.17-1,.35-1.53,.55-.58,.23-1.17,.46-1.8,.73-2.42,1.04-4.71,2.45-6.8,4.19-1.16,.89-2.16,1.8-3.02,2.75-.46,.46-.85,.91-1.23,1.41-.42,.56-.87,1.14-1.34,1.7-1.2,1.53-2.25,3.19-3.13,4.89-.89,1.74-1.7,3.53-2.41,5.31-.83,1.85-1.56,3.72-2.18,5.61-.61,1.88-1.18,3.82-1.72,5.8-.03,.27-.11,.62-.27,1.12-.03,.34-.12,.68-.28,1.05-.02,.17-.04,.35-.09,.53-.02,.09-.03,.16-.03,.23,0,.21-.05,.43-.15,.62,.01,.28-.06,.61-.2,.94-.06,.27-.11,.53-.15,.77-.03,.27-.06,.6-.06,.97,0,.16-.02,.3-.07,.44-.01,.06-.07,.24-.07,.67,0,.15-.02,.29-.07,.44-.02,.05-.07,.23-.07,.65,0,.07,0,.12-.01,.18-.17,1.39-.24,2.72-.19,3.97,.03,1.23,.19,2.41,.44,3.52,.1,.65,.21,1.14,.36,1.54,.16,.42,.3,.82,.45,1.19,.07,.09,.14,.19,.19,.32,.07,.09,.12,.19,.17,.3,.08,.1,.17,.23,.24,.37,.07,.09,.12,.19,.17,.28l.11,.12c.17,.16,.28,.36,.35,.58,.2,.15,.36,.33,.47,.54,.45,.6,1.16,1.23,2.13,1.87,.96,.55,1.94,1.03,2.86,1.36,.05,.01,.1,.03,.15,.07h0c.14,.03,.27,.08,.41,.14,.21,.02,.42,.07,.6,.12h.58c.12,0,.24,.01,.36,.04,.17,.01,.36,.02,.56,.09,.39-.01,.79-.06,1.18-.11,.44-.08,.86-.19,1.22-.34,.1-.03,.19-.07,.29-.08,.47-.08,.92-.18,1.34-.3,.42-.12,.83-.27,1.25-.44,.19-.09,.46-.19,.73-.26,.08-.02,.17-.06,.27-.1,.3-.16,.55-.24,.8-.27,.12-.06,.29-.11,.42-.14,.8-.14,1.56-.06,2.24,.21,.74,.37,1.23,.86,1.54,1.49,.06,.09,.09,.19,.11,.29,.15,.18,.25,.38,.29,.61,.01,.09,.03,.14,.03,.16,.03-.02,.08-.03,.11-.06l.81-.81c.12-.12,.27-.26,.45-.38,.14-.24,.34-.43,.6-.56l.82-.41s.09-.04,.14-.07c.15-.09,.3-.15,.46-.19,.09-.03,.18-.07,.29-.1,.26-.16,.54-.26,.85-.3l.32-.16c.11-.06,.21-.09,.33-.11,1.13-.25,2.01-.18,2.69,.23,.92,.34,1.56,1.04,1.79,1.96,.11,.21,.2,.48,.21,.82,.1,.21,.15,.44,.15,.68,0,.58-.06,1.06-.15,1.44-.02,.29-.08,.58-.17,.83-.02,.14-.07,.27-.11,.41-.01,.07-.03,.15-.06,.23-.1,.3-.2,.58-.3,.83-.08,.2-.17,.43-.25,.67-.07,.21-.18,.41-.34,.55-.19,.19-.41,.35-.62,.46-.07,.07-.06,.07-.14,.12l-.17,.11c.2,.5,.1,1.09-.32,1.5-.06,.07-.1,.11-.14,.16-.07,.14-.24,.36-.53,.64-.07,.17-.17,.32-.29,.44l-.41,.41c-.3,.3-.62,.6-.97,.89-.3,.26-.58,.51-.82,.76-.03,.04-.07,.08-.11,.1-1.48,1.19-3.31,2.19-5.47,2.98-2.66,.79-5.31,1.22-7.98,1.32-.52,.03-1.05,.06-1.59,.06-.81,0-1.65-.05-2.46-.14-1.3-.14-2.59-.3-3.9-.48-1.38-.29-2.65-.63-3.86-1.01-1.23-.39-2.4-.89-3.47-1.48-2.3-1-4.44-2.32-6.28-3.87-.12-.11-.24-.24-.32-.38-.18-.03-.36-.1-.52-.21l-.42-.27c-.07-.05-.15-.11-.2-.18l-.12-.11c-.34-.28-.67-.58-.97-.89-.02-.01-.03-.02-.06-.03-.16-.11-.29-.24-.41-.41l-.11-.17c-.3-.35-.61-.71-.89-1.07l-.33-.34c-.07-.06-.12-.14-.18-.2l-.37-.49c-.07-.06-.12-.12-.17-.2l-.55-.82c-.07-.1-.12-.21-.17-.34l-.07-.14c-.09-.09-.16-.18-.23-.28-1.33-2.29-2.3-4.48-2.87-6.51-.37-1-.65-2.11-.8-3.21-.14-.99-.29-1.97-.47-2.97-.11-1.16-.16-2.16-.16-3.13v-4.12c0-.09,.01-.19,.02-.27l.11-.55v-1.24c0-.11,.02-.23,.05-.34l.11-.45,.12-1.27c0-.5,.05-1.01,.16-1.48l.26-2.5c.01-.18,.07-.35,.15-.51-.01-.35,.06-.7,.19-1.03,.07-.36,.12-.71,.16-1.04,.06-.45,.14-.92,.24-1.42l.59-2.65c.01-.07,.03-.15,.07-.21,.14-.34,.23-.65,.26-.94,.06-.53,.21-1.09,.45-1.68l.41-1.16c.07-.28,.23-.78,.43-1.38l.36-1.04c.01-.17,.06-.38,.16-.61,.01-.11,.03-.24,.08-.33l.27-.69c.18-.45,.34-.86,.47-1.22,.14-.37,.3-.79,.49-1.26,.2-.39,.36-.8,.53-1.3,.02-.07,.05-.12,.07-.18l.67-1.2c.2-.61,.43-1.07,.67-1.43l.35-.63c.02-.1,.06-.2,.1-.3,.09-.18,.21-.37,.35-.55,.79-1.53,1.73-3.12,2.77-4.69,.42-.78,.99-1.65,1.62-2.48,.61-.79,1.25-1.58,1.92-2.33,.63-.72,1.26-1.47,1.89-2.23,.67-.81,1.39-1.6,2.15-2.37,.76-.76,1.56-1.48,2.37-2.15,.78-.64,1.6-1.3,2.44-1.95,1.67-1.39,3.53-2.68,5.51-3.81,1.97-1.13,4.05-2.16,6.19-3.09,.23-.12,.54-.23,.89-.29,.15-.16,.26-.24,.46-.3l1.56-.52c.3-.15,.6-.21,.88-.24,.3-.15,.55-.24,.8-.26l.29-.15c.12-.07,.25-.1,.38-.12,.23-.12,.51-.15,.73-.16,.14-.07,.29-.11,.44-.14,.86-.09,1.73-.16,2.63-.2,.89-.06,1.77-.08,2.62-.08,.86-.09,1.83-.11,2.75-.07,.88,.06,1.84,.12,2.86,.21,.05,0,.1,.01,.15,.02,.9,.18,1.79,.34,2.68,.46,.99,.16,2.05,.43,3.16,.82l.37,.14c.07,.02,.14,.05,.2,.08,.14,.02,.27,.07,.39,.14,.14,.07,.24,.11,.32,.15,.14,.02,.26,.07,.37,.12l1.09,.54c.08,.05,.15,.09,.21,.14,.15,.07,.27,.16,.37,.24,.28,.15,.5,.27,.65,.39,.32,.16,.54,.29,.71,.43,.28,.17,.58,.41,.89,.72l.18,.15c.14,.07,.26,.16,.37,.27l.14,.14Z"/>
        <path d="M207.88,85.78c.31,0,.63,0,.93,.02,.88,.06,1.84,.12,2.86,.21,.05,0,.1,.01,.15,.02,.9,.18,1.79,.34,2.68,.46,.99,.16,2.05,.43,3.16,.82l.37,.13c.07,.02,.14,.05,.2,.08,.14,.02,.27,.07,.39,.14,.14,.07,.24,.11,.32,.15,.13,.02,.26,.07,.37,.12l1.09,.54c.08,.05,.15,.09,.21,.14,.15,.07,.27,.16,.37,.24,.28,.15,.5,.27,.65,.39,.32,.16,.54,.29,.71,.43,.28,.17,.58,.41,.89,.72l.18,.15c.13,.07,.26,.16,.37,.27l.13,.14c.44,.44,.53,1.12,.23,1.66-.25,.42-.68,.68-1.15,.7-.03,.07-.08,.15-.14,.21-.46,.9-.89,1.44-1.35,1.76-.06,.02-.1,.06-.15,.08-.49,.24-.92,.33-1.29,.33-.19,0-.36-.02-.51-.06-.42-.03-.9-.18-1.54-.44-.14-.03-.27-.08-.38-.14,.32,.43,.58,.89,.8,1.39,.28,.57,.39,1.2,.32,1.79-.06,.39-.15,.77-.26,1.13-.27,.67-.58,1.16-.95,1.56-.36,.48-.94,.86-1.73,1.12-.14,.05-.28,.07-.44,.07h-.9c-.32,.08-.69,.12-1.1,.14-.11,.06-.24,.1-.37,.12-.19,.1-.42,.16-.64,.16h-1.51c-.41,0-.82,.02-1.23,.06-.42,.05-.83,.11-1.25,.19h-.03c-.2,.11-.42,.16-.64,.16h-.14c-.21,.09-.44,.14-.69,.14h-.06c-.14,.06-.28,.1-.45,.12-.12,.06-.26,.1-.38,.12-.21,.1-.43,.14-.6,.16-.14,.06-.27,.1-.41,.12-.5,.17-1,.35-1.53,.55-.57,.23-1.17,.46-1.8,.73-2.42,1.04-4.71,2.45-6.8,4.19-1.16,.89-2.16,1.8-3.02,2.75-.46,.46-.85,.91-1.23,1.41-.42,.56-.87,1.14-1.34,1.7-1.2,1.53-2.25,3.19-3.13,4.89-.89,1.74-1.7,3.53-2.41,5.31-.83,1.85-1.56,3.72-2.18,5.61-.61,1.88-1.18,3.82-1.72,5.79-.03,.27-.11,.62-.27,1.12-.03,.34-.12,.68-.28,1.05-.02,.17-.05,.35-.09,.53-.02,.09-.03,.16-.03,.23,0,.21-.05,.43-.15,.62,.01,.28-.06,.61-.2,.94-.06,.27-.11,.53-.15,.77-.03,.27-.06,.6-.06,.97,0,.16-.02,.3-.07,.44-.01,.06-.07,.24-.07,.67,0,.15-.02,.29-.07,.44-.02,.05-.07,.23-.07,.65,0,.07,0,.12-.01,.18-.17,1.39-.24,2.72-.19,3.97,.03,1.23,.19,2.41,.44,3.52,.1,.65,.21,1.14,.36,1.54,.16,.42,.3,.82,.45,1.19,.07,.09,.14,.19,.19,.32,.07,.09,.12,.19,.17,.3,.08,.1,.17,.23,.24,.37,.07,.09,.12,.19,.17,.28l.11,.12c.17,.16,.28,.36,.35,.57,.2,.15,.36,.33,.47,.54,.45,.6,1.16,1.23,2.13,1.87,.96,.55,1.94,1.03,2.86,1.36,.05,.01,.1,.03,.15,.07h0c.13,.03,.27,.08,.41,.14,.21,.02,.42,.07,.6,.12h.58c.12,0,.24,.01,.36,.05,.17,.01,.36,.02,.56,.09,.39-.01,.79-.06,1.18-.11,.44-.08,.86-.19,1.22-.34,.1-.03,.19-.07,.29-.08,.47-.08,.92-.18,1.34-.3,.42-.12,.83-.27,1.25-.44,.19-.09,.46-.19,.73-.26,.08-.02,.17-.06,.27-.1,.3-.16,.55-.24,.8-.27,.12-.06,.29-.11,.42-.14,.26-.04,.51-.06,.76-.06,.52,0,1.02,.1,1.49,.28,.74,.37,1.23,.86,1.54,1.49,.06,.09,.09,.19,.11,.29,.15,.18,.25,.38,.29,.61,.01,.09,.03,.14,.03,.16,.03-.02,.08-.03,.11-.06l.81-.81c.12-.12,.27-.26,.45-.38,.13-.24,.34-.43,.6-.56l.82-.41,.14-.07c.15-.09,.3-.15,.46-.19,.09-.03,.18-.07,.29-.1,.26-.16,.54-.26,.85-.3l.32-.16c.11-.06,.21-.09,.33-.11,.44-.1,.84-.14,1.2-.14,.58,0,1.07,.12,1.49,.37,.92,.34,1.56,1.04,1.79,1.96,.11,.21,.2,.49,.21,.82,.1,.21,.15,.44,.15,.68,0,.58-.06,1.06-.15,1.44-.02,.29-.08,.57-.17,.83-.02,.14-.07,.27-.11,.41-.01,.07-.03,.15-.06,.23-.1,.3-.2,.58-.3,.83-.08,.2-.17,.43-.25,.67-.07,.21-.18,.41-.34,.55-.19,.19-.41,.35-.62,.46-.07,.07-.06,.07-.14,.12l-.17,.11c.2,.5,.1,1.09-.32,1.5-.06,.07-.1,.11-.13,.16-.07,.14-.24,.36-.53,.64-.07,.17-.17,.32-.29,.44l-.41,.41c-.3,.3-.62,.6-.97,.89-.3,.26-.58,.51-.82,.76-.03,.05-.07,.08-.11,.1-1.48,1.19-3.31,2.19-5.47,2.98-2.66,.79-5.31,1.22-7.98,1.32-.52,.03-1.05,.06-1.59,.06-.81,0-1.65-.05-2.46-.14-1.3-.14-2.59-.3-3.9-.49-1.38-.29-2.65-.63-3.86-1.01-1.23-.39-2.4-.89-3.47-1.48-2.3-1-4.44-2.32-6.28-3.87-.12-.11-.24-.24-.32-.38-.18-.03-.36-.1-.52-.21l-.42-.27c-.07-.05-.15-.11-.2-.18l-.12-.11c-.34-.28-.67-.57-.97-.89-.02-.01-.03-.02-.06-.03-.16-.11-.29-.24-.41-.41l-.11-.17c-.3-.35-.61-.71-.89-1.07l-.33-.34c-.07-.06-.12-.13-.18-.2l-.37-.49c-.07-.06-.12-.12-.17-.2l-.55-.82c-.07-.1-.12-.21-.17-.34l-.07-.14c-.09-.09-.16-.18-.23-.28-1.33-2.29-2.3-4.48-2.87-6.51-.37-1-.65-2.11-.8-3.21-.14-.99-.29-1.97-.47-2.97-.11-1.16-.16-2.16-.16-3.13v-4.12c0-.09,.01-.19,.02-.27l.11-.55v-1.24c0-.11,.02-.23,.05-.34l.11-.45,.12-1.27c0-.5,.05-1.01,.16-1.48l.26-2.5c.01-.18,.07-.35,.15-.51-.01-.35,.06-.7,.19-1.03,.07-.36,.12-.71,.16-1.04,.06-.45,.14-.92,.24-1.42l.59-2.65c.01-.07,.03-.15,.07-.21,.14-.34,.23-.65,.26-.94,.06-.53,.21-1.09,.45-1.68l.41-1.16c.07-.28,.23-.78,.43-1.38l.36-1.04c.01-.17,.06-.38,.16-.61,.01-.11,.03-.24,.08-.33l.27-.69c.18-.45,.34-.86,.47-1.22,.14-.37,.3-.79,.49-1.26,.2-.39,.36-.8,.53-1.3,.02-.07,.05-.12,.07-.18l.67-1.2c.2-.61,.43-1.07,.67-1.43l.35-.63c.02-.1,.06-.2,.1-.3,.09-.18,.21-.37,.35-.55,.79-1.53,1.72-3.12,2.77-4.69,.42-.78,.99-1.65,1.62-2.48,.61-.79,1.25-1.58,1.92-2.33,.63-.72,1.26-1.47,1.89-2.23,.67-.81,1.39-1.6,2.15-2.37,.76-.76,1.56-1.48,2.37-2.15,.78-.64,1.6-1.3,2.43-1.95,1.67-1.39,3.53-2.68,5.51-3.81,1.97-1.13,4.05-2.16,6.19-3.09,.23-.12,.54-.23,.89-.29,.15-.16,.26-.24,.46-.3l1.56-.52c.3-.15,.6-.21,.88-.24,.3-.15,.55-.24,.8-.26l.29-.15c.12-.07,.25-.1,.38-.12,.23-.12,.51-.15,.73-.16,.14-.07,.29-.11,.44-.14,.86-.09,1.72-.16,2.63-.2,.89-.06,1.77-.08,2.62-.08,.57-.06,1.19-.09,1.82-.09m0-3.38c-.69,0-1.36,.03-1.99,.09-.92,0-1.81,.03-2.66,.08-.91,.05-1.83,.12-2.77,.22h-.08s-.08,.02-.08,.02c-.23,.03-.45,.09-.67,.15-.31,.04-.67,.12-1.03,.25-.26,.07-.5,.16-.73,.27-.23,.06-.44,.13-.64,.21-.4,.08-.79,.2-1.17,.36l-1.4,.47c-.33,.11-.62,.24-.9,.41-.3,.1-.57,.21-.83,.34-2.2,.96-4.36,2.04-6.42,3.21-2.1,1.19-4.1,2.58-5.96,4.11-1,.78-1.78,1.41-2.46,1.98-.94,.78-1.82,1.58-2.61,2.37-.86,.86-1.66,1.74-2.38,2.62-.61,.74-1.23,1.47-1.82,2.15-.66,.75-1.36,1.6-2.05,2.5-.74,.97-1.37,1.93-1.84,2.8-1.02,1.54-1.95,3.1-2.77,4.67-.19,.27-.35,.54-.48,.81l-.03,.07-.03,.07c-.05,.11-.1,.23-.14,.35l-.13,.23c-.33,.53-.61,1.11-.86,1.77l-.52,.94-.1,.19-.08,.2c-.05,.12-.09,.23-.14,.37-.13,.37-.22,.62-.33,.82l-.09,.17-.07,.18-.2,.52c-.11,.28-.21,.55-.3,.79-.12,.31-.26,.69-.43,1.12l-.25,.63c-.1,.24-.18,.49-.24,.75-.08,.23-.14,.46-.18,.69l-.25,.73c-.27,.8-.4,1.24-.47,1.51l-.33,.95c-.33,.84-.54,1.65-.64,2.42,0,.02-.01,.04-.03,.08-.12,.27-.2,.55-.26,.84l-.58,2.6c-.13,.63-.22,1.19-.29,1.73v.04s0,.04,0,.04c-.01,.14-.04,.3-.07,.5-.13,.4-.22,.81-.27,1.23-.08,.29-.14,.58-.16,.88l-.23,2.26c-.12,.57-.18,1.19-.2,1.84l-.08,.87-.05,.21-.02,.08-.02,.08c-.04,.19-.11,.55-.11,1v.9l-.04,.22-.02,.09v.09c-.05,.26-.07,.52-.07,.76v4.12c0,1.14,.06,2.24,.17,3.46v.14s.04,.14,.04,.14c.18,.98,.33,1.9,.45,2.82,.17,1.26,.49,2.58,.93,3.8,.65,2.25,1.72,4.66,3.17,7.16l.05,.09,.06,.08c.05,.08,.1,.15,.15,.22,.09,.19,.2,.37,.31,.54l.51,.76c.14,.22,.3,.43,.47,.62l.24,.31,.04,.06,.05,.06c.07,.09,.21,.26,.41,.45l.14,.14c.22,.28,.47,.58,.74,.9,.29,.44,.65,.81,1.08,1.15,.28,.27,.58,.55,.92,.83,.25,.26,.5,.45,.68,.57l.02,.02,.02,.02,.37,.24c.12,.08,.25,.16,.38,.23,.02,.02,.04,.04,.06,.06l.05,.04,.05,.04c2.06,1.73,4.41,3.19,6.97,4.32,1.21,.65,2.53,1.21,3.93,1.66,1.35,.43,2.72,.79,4.19,1.1l.12,.03,.12,.02c1.1,.15,2.55,.35,4.01,.5,.91,.1,1.86,.15,2.81,.15,.55,0,1.13-.02,1.76-.06,2.96-.12,5.91-.61,8.77-1.45l.1-.03,.1-.04c2.46-.9,4.58-2.05,6.3-3.42,.21-.15,.41-.33,.59-.52,.16-.16,.34-.32,.54-.49,.38-.32,.77-.68,1.17-1.07l.41-.4c.25-.25,.47-.52,.65-.81,.19-.21,.36-.42,.5-.63,.53-.59,.89-1.29,1.08-2.03,.52-.52,.91-1.17,1.14-1.89,.03-.1,.09-.24,.14-.37l.04-.09c.12-.3,.24-.63,.36-.99l.02-.07,.02-.07c.02-.08,.05-.17,.07-.25,.04-.12,.08-.27,.12-.44,.12-.38,.2-.77,.24-1.18,.12-.6,.18-1.26,.18-1.97,0-.5-.07-.98-.21-1.44-.07-.43-.19-.85-.36-1.25-.56-1.75-1.82-3.12-3.53-3.84-.88-.45-1.86-.68-2.93-.68-.61,0-1.23,.07-1.9,.22-.37,.08-.73,.2-1.08,.37-.37,.1-.73,.24-1.07,.41,0,0,0,0,0,0-.36,.11-.69,.25-.99,.42l-.04,.02-.67,.33c-.33-.24-.69-.46-1.08-.66l-.13-.07-.14-.06c-.87-.34-1.78-.51-2.72-.51-.44,0-.88,.04-1.32,.11-.3,.05-.56,.13-.78,.21-.4,.09-.8,.23-1.2,.42-.34,.1-.69,.23-1.01,.37-.29,.12-.59,.22-.88,.31-.27,.08-.57,.15-.89,.2-.39,.06-.69,.16-.84,.21l-.09,.03-.12,.05c-.06,.02-.22,.08-.49,.13-.14,.02-.27,.04-.39,.05-.12-.02-.24-.03-.34-.04-.27-.05-.55-.07-.84-.07h-.15c-.06-.01-.12-.03-.19-.04-.1-.04-.19-.08-.29-.11-.67-.25-1.41-.61-2.17-1.04-.65-.44-.98-.76-1.13-.93-.14-.23-.3-.44-.48-.63-.14-.24-.31-.47-.5-.69-.08-.14-.16-.26-.23-.37-.05-.1-.11-.19-.16-.28-.03-.05-.06-.1-.08-.15-.05-.12-.09-.24-.14-.36l-.18-.48c-.05-.14-.12-.44-.18-.86l-.02-.11-.03-.11c-.21-.94-.33-1.91-.36-2.87-.04-1.06,.02-2.19,.16-3.4,.04-.27,.04-.48,.04-.61,.09-.36,.13-.73,.13-1.1,.09-.37,.14-.75,.14-1.14,0-.25,.02-.44,.03-.55,0-.05,.02-.13,.04-.21,.14-.4,.24-.8,.3-1.21,.09-.31,.15-.64,.17-.97,.02-.09,.03-.17,.05-.25,.14-.4,.24-.79,.3-1.18,.12-.42,.21-.79,.27-1.14,.52-1.9,1.07-3.73,1.63-5.46,.59-1.79,1.27-3.56,2.04-5.26l.03-.07,.03-.07c.68-1.71,1.45-3.4,2.28-5.02,.78-1.51,1.71-2.96,2.76-4.31,.48-.57,.95-1.17,1.41-1.79,.32-.42,.61-.75,.92-1.06l.06-.06,.06-.06c.71-.79,1.58-1.57,2.57-2.34l.06-.04,.06-.05c1.83-1.53,3.83-2.77,5.96-3.68,.6-.26,1.16-.48,1.71-.69,.41-.16,.81-.3,1.21-.44,.12-.03,.24-.06,.36-.1,.23-.05,.49-.11,.78-.22,.09-.03,.19-.06,.28-.09,.05-.01,.1-.02,.15-.04,.23-.03,.46-.07,.68-.12,.4-.03,.78-.12,1.15-.25,.25-.04,.46-.07,.66-.1,.34-.03,.64-.04,.91-.04h1.51c.59,0,1.17-.11,1.71-.32,.26-.02,.51-.06,.75-.1h.55c.52,0,1.03-.08,1.51-.24,1.37-.45,2.46-1.17,3.24-2.14,.61-.68,1.09-1.49,1.49-2.47l.05-.13,.04-.13c.18-.56,.3-1.11,.38-1.65,.26-.09,.52-.2,.78-.33,.02-.01,.04-.02,.06-.03l.17-.07,.31-.21c.71-.49,1.32-1.14,1.88-2.01,.71-.41,1.32-.99,1.75-1.73l.02-.04,.02-.04c1.04-1.86,.72-4.2-.78-5.71l-.13-.13c-.24-.24-.5-.45-.77-.63-.38-.36-.76-.66-1.15-.91-.25-.18-.53-.36-.86-.53-.21-.14-.42-.27-.62-.37-.13-.09-.29-.19-.47-.29-.07-.05-.15-.1-.24-.14l-.09-.05-.09-.05-1.09-.54c-.23-.12-.47-.21-.72-.29-.27-.13-.54-.24-.83-.32-.04-.02-.08-.03-.12-.04l-.33-.12c-1.29-.46-2.55-.79-3.78-.98h-.03s-.03,0-.03,0c-.75-.1-1.55-.24-2.43-.42-.21-.05-.42-.08-.63-.09-1.03-.09-1.99-.16-2.88-.21-.41-.02-.78-.03-1.15-.03h0Z"/>
      </g>
    </g>
    <g>
      <g>
        <path class="cls-1" d="M379.32,71.05c.11,1.15,.03,2.31-.23,3.45-.24,1.04-.55,2.14-.94,3.29-.17,.52-.32,1.04-.45,1.56-.15,.59-.32,1.16-.51,1.75-.42,1.08-.62,2.02-.62,2.86,0,.07,0,.15-.01,.23-.28,1.67-.59,3.28-.9,4.86-.35,1.66-.91,3.34-1.69,4.98-.97,2.03-1.78,4.16-2.39,6.31-.68,2.36-1.69,4.67-3.03,6.87-.21,.42-.33,1.16-.28,2.11,.08,2.13-.78,3.06-1.58,3.45-.78,.54-1.5,.59-1.97,.52-.39-.04-.85-.12-1.34-.21-.2-.05-.39-.14-.56-.26-.12-.01-.24-.05-.36-.09-.23-.09-.43-.16-.61-.23-.08,.35-.32,.62-.65,.82-1.43,.83-2.92,1.05-4.43,.62-1.31-.36-2.41-.92-3.29-1.68-.61-.41-.99-.7-1.24-.95-.14-.15-.25-.32-.32-.5-.23-.09-.44-.24-.6-.43-1.1-1.35-1.52-2.67-1.24-3.92,.02-.1,.06-.19,.09-.27,.43-.94,.8-1.94,1.1-2.98,.3-1.04,.63-2.05,.97-3.01,0-.16,.02-.32,.08-.47,.62-1.88,1.16-3.77,1.61-5.59,.38-1.57,.77-3.15,1.14-4.75-.09-.05-.18-.1-.28-.15-.32-.17-.61-.36-.86-.58-.14-.07-.25-.14-.35-.19-.08,.01-.16,.02-.23,.02h-.23c-.19,.09-.39,.14-.6,.14h-.11c-.36,.08-.73,.15-1.09,.19-.32,.05-.63,.1-.95,.18-.71,.18-1.44,.38-2.2,.6-.68,.2-1.4,.51-2.12,.91-.78,.39-1.53,.79-2.35,1.24-.8,.45-1.56,.89-2.27,1.34-3.06,2.09-6.07,4.78-8.91,7.98-1.43,1.52-2.75,3.18-3.95,4.94-1.21,1.8-2.32,3.62-3.29,5.39-3.06,5.48-5.47,11.17-7.17,16.9-.91,2.74-1.74,5.71-2.46,8.85-.36,1.52-.65,2.99-.87,4.37-.23,1.4-.44,2.89-.61,4.41-.09,.47-.14,.87-.14,1.29,0,.53-.05,1.09-.14,1.68v2.92c.09,.88,.18,1.86,.27,2.82,.08,.91,.21,1.87,.39,2.84,.17,.92,.41,1.79,.69,2.58,.32,.83,.64,1.66,1,2.46,.39,.7,.85,1.5,1.3,2.27,.43,.73,.91,1.45,1.43,2.14,.48,.64,1.01,1.22,1.58,1.7,.62,.53,1.27,1.06,1.98,1.59,.67,.5,1.39,.94,2.13,1.31l2.84,1.38c.06,.01,.11,.05,.18,.07l.02,.02c.15,.01,.32,.06,.48,.12,.12,.02,.26,.05,.35,.09l1.25,.5,1.25,.25c.09,.02,.17,.05,.25,.08l.46,.18c.28,.02,.55,.09,.79,.18,.91,.16,1.82,.28,2.69,.37,1.23,.11,2.49,.23,3.74,.07,.36-.05,.76-.07,1.21-.08,.33-.09,.65-.14,.96-.14,.19-.09,.41-.14,.62-.14,.12,0,.41-.03,.94-.21,2.03-.48,3.9-.98,5.67-1.52,.81-.33,1.71-.68,2.6-1l2.33-.86c.42-.21,.83-.34,1.23-.37,.18-.08,.39-.17,.62-.29,.09-.03,.18-.07,.28-.1,.89-.23,1.36-.29,1.66-.3,.91-.21,2.13-.39,3.04,.15,.9,.42,1.23,1.41,1.34,1.75,.1,.28,.1,.59,.01,.86,.05,.14,.07,.27,.07,.41,0,.11,0,.21,.01,.32,.1-.03,.21-.07,.33-.09,.08-.08,.08-.11,.17-.17,.47-.28,.98-.57,1.5-.86,.44-.24,.82-.49,1.14-.71,.15-.11,.32-.19,.49-.24,1.96-.5,3.33-.73,4.18-.73h1.24c.51,0,1.03,.14,1.59,.43,.26,.14,.47,.35,.61,.61,.29,.59,.43,1.03,.43,1.44v.69c0,.21-.06,.43-.15,.61,0,.09-.01,.18-.03,.25-.21,.99-.68,2.03-1.41,3.19-.03,.05-.06,.08-.09,.12-.35,.43-.68,.86-.98,1.3-.37,.53-.81,1.05-1.32,1.56-.38,.38-.82,.62-1.32,.72-.12,.14-.21,.2-.36,.27,.08,.46-.08,.96-.46,1.29l-1.92,1.65c-.69,.59-1.47,1.17-2.33,1.75-.81,.51-1.68,.99-2.63,1.47-.96,.49-1.98,.91-3.03,1.3-1.32,.47-2.64,.9-3.93,1.26-1.33,.38-2.65,.71-3.93,.99-2.69,.55-5.42,.98-8.12,1.26-1.45,.05-2.91,.07-4.36,.07s-2.81-.02-4.21-.07c-.06,0-.1,0-.16-.01l-1.31-.12c-.11,0-.24-.01-.34-.04l-.55-.14c-.26-.07-.48-.09-.69-.09-.42,0-.89-.06-1.44-.17l-.9-.26c-.25-.01-.47-.06-.67-.12h-.23c-.11,0-.23-.01-.34-.05l-1.65-.41c-.18-.05-.35-.12-.5-.24-.2-.1-.37-.23-.47-.32-.24,.06-.5,.06-.76-.02-1.51-.47-3.02-1.05-4.49-1.71-1.47-.65-2.9-1.43-4.23-2.29-2.8-1.68-5.42-3.73-7.79-6.1-1.18-1.27-2.23-2.57-3.17-3.88-.94-1.32-1.79-2.65-2.55-3.97-1.61-2.93-2.85-5.84-3.7-8.67-.85-2.92-1.42-5.87-1.7-8.78-.18-1.44-.3-2.92-.35-4.34-.05-1.39-.07-2.83-.07-4.31,.09-2.83,.33-5.6,.7-8.3,.36-2.65,.83-5.36,1.39-8.06,.65-2.71,1.38-5.34,2.16-7.89,.79-2.56,1.7-5.12,2.72-7.6,2.04-4.71,4.51-9.57,7.37-14.47,1.41-2.35,2.95-4.65,4.62-6.87s3.44-4.42,5.29-6.54l3.01-3.02c.98-.98,2.03-1.97,3.13-3,1.14-1.04,2.33-2.02,3.56-2.91,1.21-.89,2.49-1.73,3.83-2.49,.43-.26,.96-.58,1.54-.94,.64-.39,1.34-.78,2.1-1.16,.7-.44,1.49-.85,2.23-1.15,.72-.28,1.36-.52,1.94-.71,1.24-.38,2.35-.63,3.31-.73,.37-.11,.74-.16,1.1-.16,.12,0,.25-.02,.38-.07,.43-.15,.85-.21,1.26-.21,.12,0,.26-.02,.38-.07,.08-.02,.15-.03,.23-.06,.63-.1,1.25-.15,1.86-.15h5.5c1.7,.1,3.34,.51,4.95,1.21,.07,.02,.14,.06,.21,.08,.07-.51,.17-.89,.33-1.21,.08-.17,.19-.3,.33-.43,1.25-1.09,2.01-2.29,2.31-3.65,.09-.42,.37-.77,.76-.95,.39-.18,.83-.18,1.22,.01,.14,.07,.44,.19,1.08,.28,.72,.1,1.4,.26,2.03,.46,.9,.3,1.54,.81,1.89,1.51,.11,.23,.18,.45,.21,.68,.5-.29,1.04-.55,1.62-.74,1.14-.37,2.25-.51,3.33-.41,1.1,.12,2.1,.49,2.93,1.07,.94,.68,1.53,1.66,1.78,2.92,.01,.05,.02,.1,.02,.15Z"/>
        <path d="M363.8,64.99c.21,0,.42,.05,.61,.15,.13,.07,.44,.19,1.08,.28,.72,.1,1.4,.26,2.03,.46,.9,.3,1.54,.81,1.89,1.51,.11,.23,.18,.45,.21,.68,.5-.29,1.04-.55,1.62-.74,.89-.29,1.78-.44,2.63-.44,.23,0,.47,.01,.69,.03,1.1,.12,2.1,.49,2.93,1.07,.94,.68,1.53,1.66,1.78,2.92,.01,.05,.02,.1,.02,.15,.11,1.15,.03,2.31-.23,3.45-.24,1.04-.55,2.14-.94,3.29-.17,.52-.32,1.04-.45,1.56-.15,.59-.32,1.16-.51,1.75-.42,1.08-.62,2.02-.62,2.86,0,.07,0,.15-.01,.23-.28,1.67-.59,3.28-.9,4.86-.35,1.66-.91,3.34-1.69,4.98-.97,2.03-1.78,4.16-2.39,6.31-.68,2.36-1.69,4.67-3.03,6.87-.21,.42-.33,1.16-.28,2.11,.08,2.13-.78,3.06-1.58,3.45-.61,.42-1.18,.54-1.63,.54-.12,0-.24,0-.34-.02-.39-.05-.85-.12-1.34-.21-.2-.05-.39-.14-.56-.26-.12-.01-.24-.05-.36-.09-.23-.09-.43-.16-.61-.23-.08,.35-.32,.62-.65,.82-.95,.55-1.93,.84-2.92,.84-.5,0-1-.07-1.51-.22-1.31-.36-2.41-.92-3.29-1.68-.61-.41-.99-.7-1.24-.95-.14-.15-.25-.32-.32-.5-.23-.09-.44-.24-.6-.43-1.1-1.35-1.52-2.67-1.24-3.92,.02-.1,.06-.19,.09-.27,.43-.94,.8-1.94,1.1-2.98,.3-1.04,.63-2.05,.97-3.01,0-.16,.02-.32,.08-.47,.62-1.88,1.16-3.77,1.61-5.59,.38-1.57,.77-3.15,1.14-4.75-.09-.05-.18-.1-.28-.15-.32-.17-.61-.36-.86-.58-.14-.07-.25-.13-.35-.19-.08,.01-.16,.02-.23,.02h-.23c-.19,.09-.39,.14-.6,.14h-.11c-.36,.08-.73,.15-1.09,.19-.32,.05-.63,.1-.95,.18-.71,.18-1.44,.38-2.2,.6-.68,.2-1.4,.51-2.12,.91-.78,.39-1.53,.79-2.35,1.24-.8,.45-1.56,.89-2.27,1.34-3.06,2.09-6.07,4.78-8.91,7.98-1.43,1.52-2.75,3.18-3.95,4.94-1.21,1.8-2.32,3.62-3.29,5.39-3.06,5.48-5.47,11.17-7.17,16.9-.91,2.74-1.74,5.71-2.46,8.85-.36,1.52-.65,2.99-.87,4.37-.23,1.4-.44,2.89-.61,4.41-.09,.47-.14,.87-.14,1.28,0,.53-.05,1.09-.14,1.68v2.92c.09,.88,.18,1.86,.27,2.82,.08,.91,.21,1.87,.39,2.84,.17,.92,.41,1.79,.69,2.58,.32,.83,.64,1.66,1,2.46,.39,.7,.85,1.5,1.3,2.27,.43,.73,.91,1.45,1.43,2.14,.48,.64,1.01,1.22,1.58,1.7,.62,.53,1.27,1.06,1.98,1.59,.67,.5,1.39,.94,2.13,1.31l2.84,1.38c.06,.01,.11,.05,.18,.07l.02,.02c.15,.01,.32,.06,.48,.12,.12,.02,.26,.05,.35,.09l1.25,.5,1.25,.25c.09,.02,.17,.05,.25,.08l.46,.18c.28,.02,.55,.09,.79,.18,.91,.16,1.82,.28,2.69,.37,.79,.07,1.6,.15,2.41,.15,.44,0,.89-.02,1.33-.08,.36-.05,.76-.07,1.21-.08,.33-.09,.65-.14,.96-.14,.19-.09,.41-.14,.62-.14,.12,0,.41-.03,.94-.21,2.03-.49,3.9-.98,5.67-1.52,.81-.33,1.71-.68,2.6-1l2.33-.86c.42-.21,.83-.34,1.23-.37,.18-.08,.39-.17,.62-.29,.09-.03,.18-.07,.28-.1,.89-.23,1.36-.29,1.66-.3,.47-.11,1.01-.21,1.56-.21s1.04,.09,1.49,.36c.9,.42,1.23,1.41,1.34,1.75,.1,.28,.1,.59,.01,.86,.05,.14,.07,.27,.07,.41,0,.11,0,.21,.01,.32,.1-.03,.21-.07,.33-.09,.08-.08,.08-.11,.17-.17,.47-.28,.98-.57,1.5-.86,.44-.24,.82-.49,1.14-.71,.15-.11,.32-.19,.49-.24,1.96-.5,3.33-.73,4.18-.73h1.24c.51,0,1.03,.14,1.59,.43,.26,.14,.47,.35,.61,.61,.29,.59,.43,1.03,.43,1.44v.69c0,.21-.06,.43-.15,.61,0,.09-.01,.18-.03,.25-.21,.99-.68,2.03-1.41,3.19-.03,.05-.06,.08-.09,.12-.35,.43-.68,.86-.98,1.3-.37,.53-.81,1.05-1.32,1.56-.38,.38-.82,.62-1.32,.72-.12,.14-.21,.2-.36,.27,.08,.46-.08,.96-.46,1.29l-1.92,1.65c-.69,.59-1.47,1.17-2.33,1.75-.81,.51-1.68,.99-2.63,1.47-.96,.49-1.98,.91-3.03,1.3-1.32,.47-2.64,.9-3.94,1.26-1.33,.38-2.65,.71-3.93,.99-2.69,.55-5.42,.98-8.12,1.26-1.45,.05-2.91,.07-4.36,.07s-2.81-.02-4.21-.07c-.06,0-.1,0-.16-.01l-1.31-.12c-.11,0-.24-.01-.34-.05l-.55-.14c-.26-.07-.49-.09-.69-.09-.42,0-.89-.06-1.44-.17l-.9-.26c-.25-.01-.47-.06-.67-.12h-.23c-.11,0-.23-.01-.34-.05l-1.65-.41c-.18-.05-.35-.12-.5-.24-.2-.1-.37-.23-.47-.32-.11,.03-.22,.04-.34,.04-.14,0-.28-.02-.42-.06-1.51-.47-3.02-1.05-4.49-1.71-1.47-.65-2.9-1.43-4.23-2.29-2.8-1.68-5.42-3.73-7.79-6.1-1.18-1.27-2.23-2.57-3.17-3.88-.94-1.32-1.79-2.65-2.55-3.97-1.61-2.93-2.85-5.84-3.7-8.67-.85-2.92-1.42-5.87-1.7-8.78-.18-1.44-.3-2.92-.35-4.34-.05-1.39-.07-2.83-.07-4.31,.09-2.83,.33-5.6,.7-8.3,.36-2.65,.83-5.36,1.39-8.06,.65-2.71,1.38-5.34,2.16-7.89,.79-2.56,1.7-5.12,2.72-7.6,2.04-4.71,4.51-9.57,7.37-14.47,1.41-2.35,2.95-4.65,4.62-6.87,1.67-2.22,3.44-4.42,5.29-6.54l3.01-3.02c.98-.98,2.03-1.97,3.13-3,1.14-1.04,2.33-2.02,3.56-2.91,1.21-.89,2.49-1.72,3.83-2.49,.43-.26,.96-.57,1.54-.94,.64-.39,1.34-.78,2.1-1.16,.7-.44,1.49-.85,2.23-1.15,.72-.28,1.36-.52,1.94-.71,1.24-.38,2.35-.63,3.31-.73,.37-.11,.74-.16,1.1-.16,.12,0,.25-.02,.38-.07,.43-.15,.85-.21,1.26-.21,.12,0,.26-.02,.38-.07,.08-.02,.15-.03,.23-.06,.63-.1,1.25-.15,1.86-.15h5.5c1.7,.1,3.34,.51,4.95,1.21,.07,.02,.14,.06,.21,.08,.07-.51,.17-.89,.33-1.21,.08-.17,.19-.3,.33-.43,1.25-1.09,2.01-2.29,2.31-3.65,.09-.42,.37-.77,.76-.95,.19-.09,.4-.13,.6-.13m0-3.38c-.7,0-1.37,.15-2.01,.44-1.36,.64-2.35,1.87-2.66,3.31-.08,.38-.31,1.01-1.23,1.82l-.03,.03-.02,.02c-1.1-.28-2.22-.46-3.34-.53h-.1s-.1,0-.1,0h-5.5c-.81,0-1.62,.06-2.4,.19l-.19,.03-.15,.04s-.05,.01-.07,.02c-.57,.03-1.13,.12-1.69,.28-.47,.02-.92,.09-1.36,.2-1.11,.14-2.31,.41-3.68,.83h-.03s-.03,.02-.03,.02c-.61,.2-1.3,.45-2.1,.77-.93,.38-1.84,.84-2.67,1.35-.82,.42-1.54,.82-2.2,1.23-.42,.26-.8,.49-1.14,.69l-.35,.21c-1.45,.83-2.84,1.73-4.13,2.69-1.28,.92-2.57,1.98-3.83,3.13-1.37,1.27-2.36,2.22-3.25,3.11l-3.01,3.03-.08,.08-.07,.08c-1.85,2.12-3.68,4.38-5.44,6.73-1.72,2.28-3.34,4.69-4.82,7.16-2.92,4.99-5.46,9.98-7.58,14.86v.03s-.03,.03-.03,.03c-1.05,2.56-1.99,5.21-2.82,7.88-.8,2.58-1.55,5.3-2.22,8.09v.06s-.03,.06-.03,.06c-.59,2.9-1.07,5.69-1.42,8.28-.39,2.82-.64,5.74-.73,8.65v.05s0,.05,0,.05c0,1.51,.02,3,.07,4.42,.05,1.46,.17,3.01,.37,4.6,.3,3.09,.91,6.23,1.82,9.35,.92,3.09,2.26,6.23,3.98,9.36v.03s.03,.03,.03,.03c.8,1.39,1.71,2.82,2.72,4.24,1.06,1.48,2.22,2.9,3.45,4.22l.04,.05,.04,.04c2.54,2.54,5.36,4.75,8.4,6.58,1.48,.95,3.04,1.79,4.64,2.5,1.55,.71,3.19,1.33,4.85,1.85,.25,.08,.5,.13,.75,.17,.36,.2,.75,.36,1.17,.46l1.6,.39c.31,.08,.63,.13,.96,.15,.17,.04,.33,.06,.5,.09l.6,.17,.13,.04,.13,.03c.75,.15,1.41,.23,2.03,.24l.45,.11c.32,.09,.66,.14,1.02,.16l1.1,.1c.22,.03,.4,.03,.51,.04,1.41,.05,2.85,.07,4.26,.07s2.99-.02,4.47-.07h.12s.12-.02,.12-.02c2.76-.29,5.61-.73,8.45-1.31,1.48-.32,2.88-.68,4.19-1.06,1.28-.36,2.69-.81,4.14-1.33,1.29-.47,2.4-.95,3.42-1.46,1.03-.51,1.98-1.05,2.89-1.62l.04-.02,.04-.02c.96-.63,1.85-1.3,2.66-1.99l1.93-1.65c.5-.43,.91-.96,1.19-1.55,.41-.25,.79-.55,1.14-.9,.64-.64,1.21-1.32,1.7-2,.25-.36,.52-.72,.83-1.1l.05-.06,.05-.06,.08-.12,.09-.11,.07-.11c.93-1.47,1.53-2.83,1.83-4.17,.02-.08,.04-.16,.06-.25,.15-.46,.22-.95,.22-1.43v-.69c0-1.24-.45-2.28-.79-2.96v-.03s-.03-.03-.03-.03c-.46-.88-1.16-1.58-2.04-2.04-1.04-.54-2.1-.81-3.16-.81h-1.24c-1.18,0-2.73,.26-5.01,.84-.33,.09-.65,.21-.95,.36-.48-.56-1.05-1.01-1.7-1.33-.89-.49-1.92-.74-3.06-.74-.64,0-1.3,.08-2.05,.24-.54,.05-1.17,.17-1.99,.38l-.13,.03-.12,.04c-.14,.05-.27,.09-.4,.14l-.22,.08-.18,.1c-.53,.11-1.06,.28-1.58,.53l-2.17,.8c-.82,.3-1.7,.64-2.56,.99-1.58,.48-3.32,.95-5.33,1.43l-.15,.04-.15,.05s-.09,.03-.13,.04c-.33,.02-.66,.07-.98,.16-.25,.02-.51,.06-.76,.12-.44,.02-.82,.05-1.18,.09-.28,.03-.57,.05-.91,.05-.67,0-1.4-.07-2.1-.13-.69-.07-1.43-.17-2.17-.29-.25-.08-.51-.14-.76-.19l-.05-.02c-.28-.11-.52-.18-.7-.23l-.08-.02-.08-.02-.95-.19-.9-.36c-.29-.13-.56-.2-.77-.24-.11-.04-.22-.07-.33-.09l-2.62-1.27c-.54-.27-1.09-.61-1.58-.97-.59-.44-1.19-.92-1.81-1.45-.36-.31-.73-.71-1.07-1.17-.45-.6-.86-1.21-1.21-1.81-.42-.71-.83-1.44-1.19-2.08-.26-.59-.53-1.26-.85-2.1-.23-.64-.41-1.32-.54-2.03-.17-.9-.28-1.74-.35-2.52l-.05-.54c-.07-.74-.14-1.48-.21-2.16v-2.5c.09-.66,.14-1.31,.14-1.92,0-.13,0-.3,.08-.65l.02-.13v-.13c.16-1.32,.35-2.7,.6-4.24,.2-1.29,.47-2.68,.82-4.13,.7-3.06,1.5-5.93,2.38-8.56l.02-.05,.02-.05c1.64-5.51,3.95-10.96,6.88-16.22,.9-1.65,1.96-3.38,3.15-5.16,1.09-1.61,2.31-3.13,3.6-4.5l.03-.04,.03-.04c2.64-2.98,5.41-5.47,8.24-7.4,.57-.36,1.21-.74,2.07-1.22,.67-.37,1.36-.74,2.22-1.17l.06-.03,.06-.04c.48-.27,.97-.48,1.44-.62,.56-.16,1.15-.32,1.73-.47-.08,.32-.16,.64-.24,.96-.43,1.75-.95,3.53-1.53,5.31-.09,.27-.16,.55-.2,.83-.31,.9-.61,1.83-.89,2.79-.26,.88-.57,1.73-.94,2.52l-.02,.03-.02,.03c-.13,.3-.22,.58-.29,.88-.36,1.58-.31,4.06,1.92,6.8,.23,.27,.48,.52,.76,.74,.09,.12,.19,.23,.29,.34l.04,.05,.05,.05c.39,.39,.87,.77,1.6,1.26,1.23,1.01,2.72,1.76,4.43,2.23,.78,.22,1.6,.34,2.41,.34,1.51,0,2.98-.39,4.39-1.16h.05s.07,.02,.07,.02c.5,.09,1.02,.18,1.52,.24,.25,.03,.51,.05,.77,.05,1.17,0,2.33-.35,3.37-1.02,1.18-.66,3.37-2.43,3.22-6.48-.01-.28,0-.47,0-.58,1.38-2.33,2.45-4.8,3.18-7.34,.55-1.96,1.29-3.9,2.19-5.79,.89-1.87,1.54-3.8,1.95-5.74,.37-1.83,.67-3.45,.93-4.99v-.04s.01-.04,.01-.04c.05-.32,.05-.59,.05-.72,0-.42,.13-.97,.39-1.65l.03-.08,.03-.08c.23-.69,.41-1.34,.57-1.98,.12-.48,.25-.92,.39-1.33,.41-1.24,.76-2.46,1.02-3.59,.34-1.48,.44-2.98,.3-4.46-.01-.2-.04-.41-.09-.62-.42-2.07-1.49-3.78-3.1-4.94-1.34-.94-2.86-1.5-4.54-1.69h-.03s-.03,0-.03,0c-.33-.03-.67-.05-1.01-.05-.99,0-2.01,.14-3.02,.41-.58-.48-1.32-.91-2.27-1.23-.88-.28-1.75-.48-2.64-.61-.09-.01-.16-.03-.2-.03-.62-.28-1.29-.43-1.96-.43h0Z"/>
      </g>
      <g>
        <path class="cls-1" d="M292.26,85.84c.97,.9,1.49,2.28,1.61,4.23v.08c0,1.89-.17,3.89-.5,5.92-.34,2.02-.71,4.08-1.12,6.17-.41,2.11-.85,4.25-1.31,6.4-.44,2.09-.76,4.17-.94,6.22-.37,3.17-.76,6.25-1.17,9.27-.42,3.08-1.1,6.2-2.04,9.29-.73,2.1-1.31,4.16-1.76,6.21-.46,2.11-.91,4.25-1.38,6.45-.46,2.12-.94,4.26-1.44,6.42-.51,2.16-1.09,4.34-1.75,6.48-.15,.6-.27,1.39-.35,2.27-.09,.94-.16,1.88-.2,2.82-.06,1.03-.16,1.98-.29,2.84-.18,1.09-.54,1.91-1.09,2.48-.54,.67-1.14,1.08-1.79,1.25-.65,.16-1.35,.09-2.09-.2-.03-.01-.07-.02-.09-.03-.25,.01-.48-.03-.7-.15-.12-.06-.24-.11-.36-.16-.01,.17-.03,.35-.07,.52-.02,.19-.04,.34-.04,.46,0,.3-.1,.59-.28,.83-1.41,1.88-2.82,2.4-3.94,2.4-.3,0-.6-.05-.86-.1-1.4-.34-2.6-1.01-3.61-2.02-.56-.56-1.03-1.2-1.36-1.87-.09-.19-.14-.38-.15-.59-.26-.12-.49-.32-.63-.59-.42-.72-.77-1.51-1.01-2.33-.3-.95-.34-2.02-.11-3.16,.45-2.07,.85-4.13,1.16-6.13,.33-2.04,.72-4.15,1.18-6.26,.02-.12,.07-.24,.12-.34,0-.02,0-.03,.01-.05,.12-.64,.25-1.29,.37-1.92,.29-1.53,.55-3.08,.78-4.61,.24-1.6,.51-3.19,.81-4.75-.16,.01-.3,.01-.47,.01-1.92,.18-3.98,.33-5.99,.41-2.1,.1-4.24-.05-6.35-.43-.68-.08-1.35-.17-1.96-.27-.23-.03-.46-.06-.72-.08-.79,3.09-1.49,6.24-2.1,9.36-.7,3.56-1.61,7.06-2.73,10.41-.23,.68-.34,1.41-.34,2.16,0,.16-.02,.3-.08,.44-.06,.17-.06,.27-.06,.32,0,.32-.05,.63-.15,.97v1.31c0,.08,0,.16-.02,.25-.17,.98-.3,1.82-.39,2.53-.12,.99-.45,1.78-.98,2.36-.59,.82-1.25,1.3-2.01,1.39-.52,.07-1.08,.03-1.68-.08-.21-.05-.41-.14-.57-.26-.16-.01-.32-.06-.46-.14-.14-.07-.28-.14-.42-.18-.18,.74-.19,.99-.19,1,0,.29-.1,.6-.27,.83-1.82,2.41-3.62,2.58-4.8,2.3-1.39-.34-2.6-1.01-3.61-2.02-.07-.07-.12-.14-.17-.21-.18-.26-.53-.74-1.06-1.44-.19-.26-.28-.56-.27-.88-.24-.12-.42-.33-.54-.58-.41-.79-.73-1.6-.98-2.4-.3-.96-.34-2.02-.1-3.16,.01-.09,.03-.17,.07-.25,.14-.33,.21-.7,.25-1.1,.06-.69,.2-1.33,.44-1.92,.12-.36,.21-.79,.25-1.2,.06-.58,.18-1.18,.38-1.8,.08-.42,.17-.88,.25-1.39,.09-.55,.19-1.08,.28-1.56,.01-.06,.03-.11,.05-.16,.15-.44,.25-.87,.28-1.27,.05-.56,.17-1.1,.36-1.62-.03-.16-.03-.33,0-.5,.46-2.47,.91-4.93,1.38-7.35,.35-1.85,.7-3.71,1.04-5.58-1.05,.02-1.89-.18-2.49-.72-1.04-.79-1.45-1.95-1.15-3.29,.02-.11,.06-.21,.11-.3-.01-.09-.01-.18,.01-.27,.01-.16,.03-.33,.05-.48h-.19c-.29,0-.57-.09-.81-.27-1.77-1.29-2.04-2.84-1.94-3.91,.1-1.24,.44-2.38,.99-3.37,.07-.11,.15-.21,.24-.3,.12-.14,.25-.27,.34-.39,.18-.25,.38-.47,.62-.71,.1-.1,.21-.18,.34-.25,.08-.26,.24-.5,.46-.68,.51-.41,1.03-.77,1.52-1.07,.68-.41,1.42-.61,2.23-.61,.06,0,.12,.01,.19,.01,.61,.09,1.18,.16,1.7,.2,.17,.01,.34,.03,.52,.05l1.71-10.77c.63-4.03,1.33-8.15,2.06-12.26,.09-.46,.18-.97,.27-1.54,.09-.62,.19-1.17,.28-1.65,.03-.15,.08-.28,.16-.41,.77-1.36,1.38-2.75,1.8-4.13,.44-1.41,.79-2.88,1.06-4.36,.08-.45,.37-.83,.79-1.03,.42-.19,.89-.16,1.29,.08,.2,.12,.49,.17,.83,.15,.74-.06,1.44-.02,2.06,.09,.98,.18,1.75,.85,2.14,1.89,.08,.19,.14,.41,.17,.64,.42-.54,.86-1.03,1.32-1.44,1.16-1.05,2.27-1.68,3.39-1.92,1.31-.27,2.55,.09,3.56,1.04,.97,.9,1.5,2.28,1.61,4.23,.09,1.93-.02,3.95-.36,6-.33,2-.7,4.06-1.1,6.17-.42,2.1-.82,4.23-1.24,6.38-.39,2.1-.7,4.19-.87,6.25l-.91,7.28c2.39,0,4.77-.02,7.14-.07,2.5-.03,5.03-.09,7.58-.17,.67-3.74,1.31-7.44,1.93-11.11l2.13-12.5c.11-.44,.19-.88,.27-1.42,.1-.62,.19-1.16,.29-1.65,.02-.15,.08-.28,.15-.41,.78-1.39,1.41-2.78,1.89-4.17,.47-1.39,.85-2.85,1.1-4.32,.09-.47,.42-.88,.86-1.05,.45-.18,.96-.11,1.34,.18,.05,.02,.24,.1,.65,.07,.8-.05,1.51-.02,2.12,.09,.99,.18,1.75,.85,2.15,1.89,.07,.16,.11,.34,.15,.52,.41-.5,.83-.95,1.3-1.34,1.19-1.04,2.32-1.66,3.44-1.89,1.31-.27,2.55,.09,3.56,1.04Z"/>
        <path d="M289.53,84.71c1,0,1.93,.38,2.73,1.12,.97,.9,1.49,2.28,1.61,4.23v.08c0,1.89-.17,3.89-.5,5.92-.34,2.02-.71,4.08-1.12,6.17-.41,2.11-.85,4.25-1.31,6.4-.44,2.09-.76,4.17-.94,6.22-.37,3.17-.76,6.25-1.17,9.27-.42,3.08-1.1,6.2-2.04,9.29-.73,2.1-1.31,4.16-1.76,6.21-.46,2.11-.91,4.25-1.38,6.45-.46,2.12-.94,4.26-1.44,6.42-.51,2.16-1.09,4.34-1.75,6.48-.15,.6-.27,1.39-.35,2.27-.09,.94-.16,1.88-.2,2.82-.06,1.03-.16,1.98-.29,2.84-.18,1.09-.54,1.91-1.09,2.48-.54,.67-1.14,1.08-1.79,1.25-.23,.06-.46,.08-.7,.08-.44,0-.91-.1-1.38-.29-.03-.01-.07-.02-.09-.03-.02,0-.05,0-.07,0-.22,0-.43-.05-.62-.15-.12-.06-.24-.11-.36-.16-.01,.17-.03,.35-.07,.52-.02,.19-.04,.34-.04,.46,0,.3-.1,.59-.28,.83-1.41,1.88-2.82,2.4-3.94,2.4-.3,0-.6-.05-.86-.1-1.4-.34-2.6-1.02-3.61-2.02-.56-.56-1.03-1.2-1.36-1.87-.09-.19-.14-.38-.15-.59-.26-.12-.49-.32-.63-.59-.42-.72-.77-1.51-1.01-2.33-.3-.95-.34-2.02-.11-3.16,.45-2.07,.85-4.13,1.16-6.13,.33-2.04,.72-4.15,1.18-6.26,.02-.12,.07-.24,.12-.34,0-.02,0-.03,.01-.05,.12-.64,.25-1.28,.37-1.92,.29-1.53,.55-3.08,.78-4.61,.24-1.6,.51-3.19,.81-4.75-.16,.01-.3,.01-.47,.01-1.92,.18-3.98,.33-5.99,.41-.43,.02-.86,.03-1.3,.03-1.68,0-3.37-.16-5.05-.46-.68-.08-1.35-.17-1.96-.27-.23-.03-.46-.06-.72-.08-.79,3.09-1.49,6.24-2.1,9.36-.7,3.56-1.61,7.06-2.73,10.41-.23,.68-.34,1.41-.34,2.16,0,.16-.02,.3-.08,.44-.06,.17-.06,.27-.06,.32,0,.32-.05,.63-.15,.97v1.31c0,.08,0,.16-.02,.25-.17,.98-.3,1.82-.39,2.53-.12,.99-.45,1.78-.98,2.36-.59,.82-1.25,1.3-2.01,1.39-.18,.02-.37,.03-.56,.03-.36,0-.73-.04-1.12-.11-.21-.05-.41-.14-.57-.26-.16-.01-.32-.06-.46-.14-.14-.07-.28-.14-.42-.18-.18,.74-.19,.99-.19,1,0,.29-.1,.6-.27,.83-1.42,1.89-2.83,2.4-3.95,2.4-.31,0-.6-.04-.86-.1-1.39-.34-2.6-1.02-3.61-2.02-.07-.07-.12-.14-.17-.21-.18-.26-.53-.74-1.06-1.44-.19-.26-.28-.56-.27-.88-.24-.12-.42-.33-.54-.58-.41-.79-.73-1.6-.98-2.4-.3-.96-.34-2.02-.1-3.16,.01-.09,.03-.17,.07-.25,.14-.33,.21-.7,.25-1.1,.06-.69,.2-1.33,.44-1.92,.12-.36,.21-.79,.25-1.2,.06-.57,.18-1.18,.38-1.8,.08-.42,.17-.88,.25-1.39,.09-.55,.19-1.08,.28-1.56,.01-.06,.03-.11,.05-.16,.15-.44,.25-.87,.28-1.27,.05-.56,.17-1.1,.36-1.62-.03-.16-.03-.33,0-.5,.46-2.47,.91-4.93,1.38-7.35,.35-1.85,.7-3.71,1.04-5.58-.05,0-.1,0-.15,0-.98,0-1.77-.21-2.34-.72-1.04-.79-1.45-1.95-1.15-3.29,.02-.11,.06-.21,.11-.3-.01-.09-.01-.18,.01-.27,.01-.16,.03-.33,.05-.48h-.19c-.29,0-.57-.09-.81-.27-1.77-1.29-2.04-2.84-1.94-3.91,.1-1.24,.44-2.38,.99-3.37,.07-.11,.15-.21,.24-.3,.12-.14,.25-.27,.34-.39,.18-.25,.38-.47,.62-.71,.1-.1,.21-.18,.34-.25,.08-.26,.24-.5,.46-.68,.51-.41,1.03-.77,1.52-1.07,.68-.41,1.42-.61,2.23-.61,.06,0,.12,.01,.19,.01,.61,.09,1.18,.16,1.7,.2,.17,.01,.34,.03,.52,.05l1.71-10.77c.63-4.03,1.33-8.15,2.06-12.26,.09-.46,.18-.97,.27-1.54,.09-.62,.19-1.17,.28-1.65,.03-.15,.08-.28,.16-.41,.77-1.36,1.38-2.75,1.8-4.13,.44-1.41,.79-2.87,1.06-4.36,.08-.45,.37-.83,.79-1.03,.18-.08,.37-.12,.56-.12,.25,0,.5,.07,.72,.2,.17,.1,.39,.15,.67,.15,.05,0,.11,0,.17,0,.24-.02,.47-.03,.7-.03,.49,0,.94,.04,1.37,.12,.98,.18,1.75,.85,2.14,1.89,.08,.19,.14,.41,.17,.64,.42-.54,.86-1.03,1.32-1.44,1.16-1.05,2.27-1.68,3.39-1.92,.28-.06,.56-.09,.84-.09,1,0,1.93,.38,2.73,1.12,.97,.9,1.5,2.28,1.61,4.23,.09,1.93-.02,3.95-.36,6-.33,2-.7,4.06-1.1,6.17-.42,2.1-.82,4.23-1.24,6.38-.39,2.1-.7,4.19-.87,6.25l-.91,7.28c2.39,0,4.77-.02,7.14-.07,2.5-.03,5.03-.09,7.58-.17,.67-3.74,1.31-7.44,1.93-11.11l2.13-12.5c.11-.44,.19-.88,.27-1.42,.1-.62,.19-1.16,.29-1.65,.02-.15,.08-.28,.15-.41,.78-1.39,1.41-2.79,1.89-4.17,.47-1.39,.85-2.85,1.1-4.32,.09-.47,.42-.88,.86-1.05,.17-.07,.34-.1,.51-.1,.29,0,.59,.1,.83,.28,.04,.02,.18,.08,.46,.08,.06,0,.12,0,.2,0,.25-.01,.5-.02,.73-.02,.51,0,.97,.04,1.39,.11,.99,.18,1.75,.85,2.15,1.89,.07,.16,.11,.34,.15,.52,.41-.5,.83-.95,1.3-1.34,1.19-1.04,2.32-1.66,3.44-1.89,.28-.06,.56-.09,.84-.09m0-3.38h0c-.5,0-1.02,.05-1.52,.16-1.25,.26-2.44,.79-3.63,1.61-.63-.39-1.35-.67-2.11-.81-.6-.11-1.26-.17-1.99-.17-.15,0-.31,0-.47,0-.55-.22-1.15-.33-1.74-.33s-1.21,.12-1.77,.34c-1.48,.57-2.61,1.94-2.92,3.55-.24,1.36-.57,2.65-.98,3.86-.42,1.19-.97,2.41-1.64,3.61-.26,.48-.43,.95-.52,1.43-.12,.56-.21,1.16-.31,1.73v.03s0,.03,0,.03c-.07,.48-.13,.78-.2,1.07l-.03,.13-.02,.14-2.13,12.5c-.46,2.72-.94,5.48-1.44,8.37-1.61,.04-3.21,.07-4.77,.09-1.08,.02-2.17,.04-3.26,.05l.43-3.46v-.07s.01-.07,.01-.07c.15-1.81,.43-3.8,.82-5.9l.35-1.82c.29-1.52,.59-3.04,.88-4.53,.43-2.22,.81-4.33,1.13-6.28,.37-2.24,.5-4.5,.4-6.7-.16-2.85-1.07-5.04-2.69-6.55-1.42-1.33-3.16-2.03-5.03-2.03-.5,0-1.02,.05-1.52,.16-1.24,.26-2.43,.79-3.61,1.62-.64-.39-1.35-.67-2.12-.81-.63-.12-1.3-.17-1.98-.17-.17,0-.34,0-.51,.01-.56-.22-1.15-.33-1.74-.33-.69,0-1.35,.15-1.98,.43-1.43,.66-2.44,1.97-2.71,3.52-.25,1.38-.57,2.71-.96,3.94-.35,1.12-.85,2.28-1.49,3.43-.24,.41-.42,.85-.54,1.36v.06s-.03,.06-.03,.06c-.1,.5-.21,1.1-.31,1.79-.08,.49-.16,.96-.24,1.38-.79,4.4-1.48,8.54-2.08,12.38l-1.22,7.66c-1.27,.07-2.45,.43-3.54,1.08-.67,.41-1.3,.85-1.9,1.33-.4,.32-.74,.69-1.01,1.11-.02,.02-.05,.04-.07,.07-.37,.37-.67,.72-.94,1.07-.03,.03-.06,.06-.09,.1-.26,.27-.49,.57-.68,.89l-.03,.05-.03,.05c-.79,1.43-1.27,3.02-1.41,4.74-.23,2.41,.74,4.71,2.67,6.4,.02,1.96,.88,3.76,2.47,5.02,.24,.2,.49,.39,.76,.55-.16,.84-.31,1.68-.47,2.51-.3,1.58-.6,3.18-.9,4.79l-.48,2.56c-.04,.21-.07,.43-.08,.66-.17,.6-.28,1.2-.33,1.82,0,.03-.02,.18-.12,.48l-.04,.11v.04c-.05,.14-.09,.28-.12,.42h0s0,.06,0,.06c-.09,.49-.2,1.04-.29,1.61-.06,.41-.13,.77-.2,1.1-.23,.76-.39,1.53-.46,2.3-.01,.16-.04,.3-.07,.38-.34,.87-.55,1.8-.63,2.79,0,.06-.01,.1-.02,.12-.12,.29-.21,.6-.26,.91-.34,1.68-.27,3.29,.21,4.78,.31,.99,.71,1.98,1.2,2.92,.13,.26,.28,.51,.46,.74,.15,.42,.37,.81,.64,1.18,.47,.62,.78,1.04,.95,1.29,.17,.26,.37,.51,.6,.75,1.44,1.44,3.19,2.42,5.2,2.91,.56,.13,1.11,.2,1.66,.2,1.71,0,4.21-.62,6.51-3.56,.16,0,.32,.01,.48,.01,.34,0,.67-.02,.99-.06,1.12-.13,2.78-.7,4.21-2.62,.93-1.07,1.5-2.44,1.7-4.06,.07-.56,.18-1.28,.36-2.3,.08-.41,.08-.74,.08-.89v-.89c.07-.32,.11-.64,.13-.97,.1-.38,.15-.77,.15-1.18s.06-.77,.16-1.09c1.15-3.46,2.11-7.1,2.84-10.83,.41-2.12,.86-4.21,1.34-6.25,1.72,.29,3.46,.43,5.17,.43,.49,0,.98-.01,1.46-.04,.72-.03,1.46-.07,2.22-.11-.03,.19-.06,.38-.09,.57-.22,1.51-.48,3.02-.75,4.47l-.18,.94-.25,.26v.8c-.03,.08-.05,.17-.06,.25-.46,2.09-.86,4.24-1.21,6.41-.29,1.84-.67,3.84-1.13,5.95v.03s-.01,.03-.01,.03c-.34,1.71-.27,3.33,.2,4.82,.31,1.03,.75,2.04,1.3,2.99,.18,.32,.39,.61,.63,.87,.01,.03,.02,.05,.04,.08l.02,.04,.02,.03c.5,1,1.17,1.93,2,2.75,1.45,1.45,3.2,2.43,5.2,2.91h.04s.04,.02,.04,.02c.55,.12,1.07,.18,1.57,.18,1.72,0,4.23-.63,6.52-3.6,.11,0,.23,0,.34,0,.51,0,1.01-.06,1.5-.18,1.38-.36,2.55-1.13,3.54-2.3,.97-1.06,1.61-2.46,1.89-4.17,.16-1.02,.27-2.09,.33-3.21,.04-.92,.11-1.81,.19-2.68,.06-.66,.15-1.27,.25-1.71,.66-2.17,1.26-4.39,1.77-6.6,.52-2.22,1.01-4.42,1.46-6.47,.47-2.21,.91-4.35,1.37-6.45,.44-2.01,.98-3.91,1.65-5.82l.02-.07,.02-.07c.99-3.27,1.72-6.57,2.16-9.82,.39-2.79,.76-5.76,1.18-9.33v-.05s0-.05,0-.05c.17-1.9,.46-3.86,.88-5.82,.48-2.24,.93-4.42,1.32-6.46,.4-2.06,.78-4.17,1.13-6.25,.36-2.24,.54-4.41,.54-6.48v-.29c-.19-2.86-1.07-4.98-2.69-6.49-1.42-1.33-3.16-2.03-5.03-2.03h0Z"/>
      </g>
    </g>
    <g>
      <g>
        <path class="cls-1" d="M447.21,88.1c.67,1.39,.89,3.68,.69,7.2-.28,3.53-.78,7.34-1.47,11.35-.69,3.98-1.4,8.13-2.13,12.44-.46,2.15-.88,4.28-1.23,6.38-.37,2.15-.73,4.33-1.1,6.53-.18,1.1-.36,2.18-.55,3.24-.17,1.01-.35,2.05-.53,3.11,0,.32-.03,.62-.08,.94-.03,.19-.06,.39-.06,.6s-.05,.41-.14,.59v.24c0,.14,0,.47-.15,.83,0,.03-.01,.06-.01,.08-.08,.51-.15,1.04-.19,1.59-.05,.64-.12,1.25-.21,1.84-.2,.9-.38,1.74-.56,2.6-.18,.87-.36,1.76-.55,2.66-.48,1.95-1.05,3.8-1.7,5.57-.77,2.01-1.68,3.92-2.72,5.72-1.26,2.04-2.76,3.92-4.48,5.64-1.73,1.73-3.81,3.28-6.21,4.62-2.5,1.35-5.12,2.32-7.8,2.9-.61,.18-1.3,.33-1.93,.43l-1.87,.28c-.34,.05-.67,.01-.92,.06-.37,.06-.77,.09-1.19,.09h-3.71c-.11,0-.23-.01-.34-.05l-.63-.09c-.06,0-.12,0-.19-.01l-1.32-.12c-.11,0-.23-.02-.34-.05l-.39-.1c-.26-.01-.5-.06-.72-.14-.21,0-.47-.05-.67-.14-.26-.02-.53-.09-.81-.21l-.29-.07c-.33-.03-.59-.12-.79-.24-.35-.09-.76-.21-1.23-.37-.52-.18-.94-.3-1.27-.38-.15-.05-.3-.1-.43-.19-.08-.06-.33-.19-.91-.39-.06-.02-.12-.04-.18-.07l-.27-.15c-.06-.02-.1-.05-.15-.08l-.81-.46c-.92-.52-1.75-1.03-2.5-1.54-.76-.52-1.5-1.05-2.24-1.61-.05-.02-.08-.06-.11-.09-1.23-1.14-2.44-2.44-3.57-3.87l-.39-.52c-.11-.12-.21-.27-.28-.42-.25-.26-.45-.54-.59-.83l-.18-.35c-.25-.28-.42-.56-.51-.85-.03-.08-.08-.19-.14-.32l-.73-1.34c-.03-.06-.07-.1-.09-.15l-.27-.55c-.14-.27-.25-.55-.32-.85-.02-.07-.06-.17-.1-.27-.12-.24-.21-.45-.28-.64-.02-.09-.08-.19-.14-.32l-.12-.26c-.1-.19-.16-.41-.16-.62l-.06-.35c-.21-.45-.35-.89-.41-1.32-.02-.17-.1-.37-.21-.6-.09-.19-.15-.41-.15-.62-.07-.26-.11-.51-.12-.78l-.1-.41c-.02-.09-.05-.18-.05-.28-.07-.12-.1-.27-.12-.42-.37-2.82-.52-5.57-.43-8.2,.01-.1,.02-.19,.05-.28,.07-.27,.09-.5,.09-.7,0-.38,.06-.79,.15-1.2v-.8c0-.2,.05-.41,.12-.59-.02,.01,.01-.11,.01-.37,0-.2,.05-.41,.12-.6,0,0,.01-.12,.01-.37,0-.15,.02-.29,.07-.43l.2-.62v-.32c0-.16,.03-.3,.08-.45,.01-.1,.03-.2,.07-.3,0-.12,.02-.25,.07-.37l.1-.32,1.08-6.48c.46-2.24,.9-4.42,1.31-6.56,.42-2.16,.86-4.31,1.32-6.43,.35-1.52,.64-3.27,.87-5.22,.23-2.02,.48-4.05,.76-6.08,.18-1.88,.42-3.72,.7-5.39,.29-1.78,.7-3.09,1.22-3.98,.47-1.1,1.09-2.23,2.14-2.5,.65-.16,1.35-.09,2.09,.19,.2,.09,.37,.21,.52,.36,.09,.02,.19,.06,.28,.11,.12,.06,.26,.12,.38,.18,.02-.23,.07-.45,.12-.65,.01-.07,.03-.12,.06-.18,.12-.33,.21-.71,.25-1.12,.05-.62,.14-1.15,.24-1.59,.03-.12,.08-.24,.15-.35,.73-1.32,1.42-2.3,2.05-2.97-.02-.11-.03-.23-.03-.34,0-.36,.14-.71,.41-.98,.51-.51,1.32-.54,1.86-.09,.09,.02,.18,.06,.27,.1,.28,.01,.55,.11,.78,.28,.02,0,.03,.01,.06,.02,.14,.02,.28,.07,.42,.12,.17,.02,.33,.08,.47,.16,.27,.06,.56,.16,.76,.29,.12,.07,.25,.16,.35,.26,.18,.11,.35,.26,.46,.44,.2,.29,.41,.62,.6,.97,.2,.35,.39,.71,.59,1.09,.06,.11,.1,.24,.12,.36l.27,1.36c.08,.38,.19,.76,.34,1.13,.14,.34,.14,.71,0,1.04-.11,.3-.18,.52-.21,.68,.45,.17,.79,.59,.86,1.08,.18,1.32,.33,2.76,.42,4.31,.1,1.61,0,3.35-.28,5.18-.82,4.14-1.59,8.25-2.28,12.31-.68,4.08-1.4,8.19-2.13,12.31-.02,.15-.07,.29-.15,.42,.03,.16,.05,.32,.02,.47-.12,1.01-.27,2.01-.44,2.99-.01,.1-.02,.2-.03,.3-.15,1.12-.3,2.28-.5,3.47-.01,.08-.02,.17-.06,.24-.05,.14-.06,.26-.06,.38,0,.42-.08,.83-.21,1.25l-.07,.21v.32c0,.09-.01,.18-.02,.27l-.14,.69c-.09,.42-.15,.83-.19,1.24-.04,.48-.11,.96-.21,1.43-.16,1.94-.11,3.65,.14,5.06,.09,.83,.24,1.56,.44,2.25,.21,.72,.45,1.43,.7,2.11,.18,.37,.35,.71,.48,1.04,.09,.2,.18,.39,.29,.56l.3,.3c.12,.12,.23,.27,.29,.43,.1,.1,.2,.21,.29,.34,.21,.14,.38,.33,.5,.55l.03,.07c.61,.56,1.33,1.03,2.15,1.36h.01c.27,0,.53,.08,.76,.23,.06,.02,.1,.03,.15,.06h.2c.2,0,.54,.05,.73,.14h1.87c.39,0,.74-.01,1.06-.06,.35-.05,.72-.1,1.14-.19,.09-.01,.18-.02,.28-.02,.11-.06,.2-.1,.32-.12,.19-.1,.42-.16,.64-.16,0,0,.1,0,.34-.12,.06-.03,.12-.06,.19-.08,.18-.06,.38-.15,.61-.25,.1-.08,.23-.17,.38-.24,.06-.05,.12-.09,.2-.12l.07-.03c.11-.11,.26-.2,.41-.27,.09-.09,.26-.26,.52-.38,.24-.23,.43-.37,.62-.47,0-.01,.03-.05,.08-.09,.82-.82,1.67-2.01,2.51-3.54,.32-.64,.64-1.39,.96-2.16,.3-.81,.6-1.66,.85-2.5,.53-1.84,.94-3.77,1.2-5.71,.01-.08,.03-.17,.06-.25,.05-.14,.07-.26,.07-.38,0-.35,.06-.68,.15-.97,.03-.53,.14-1.13,.32-1.85,.06-.39,.12-.91,.17-1.43,.05-.61,.17-1.24,.37-1.86,.17-1.06,.35-2.14,.53-3.25,.18-1.15,.36-2.28,.55-3.38,.36-2.28,.73-4.54,1.09-6.79l1.1-6.8c.19-.8,.36-1.79,.54-3.07,.19-1.4,.38-2.46,.57-3.24,.01-.05,.02-.09,.05-.14,1.08-2.97,2.01-6,2.77-9.01,.77-3.02,1.43-6.11,1.97-9.18,.09-.53,.5-.96,1.03-1.09,.5-.12,1.01,.03,1.35,.41,.03-.01,.08-.02,.12-.03,.99-.33,1.89-.35,2.69-.06,1.04,.37,1.66,1.4,1.87,3.04,.02,.18,.03,.36,.03,.56,.36-.74,.73-1.43,1.1-2.05,1.31-2.2,2.56-3.54,3.84-4.13,1.7-.77,3.29-.12,4.16,1.69Z"/>
        <path d="M398.29,85.87c.31,0,.62,.11,.88,.32,.09,.02,.18,.06,.27,.1,.28,.01,.55,.11,.78,.28,.02,0,.03,.01,.06,.02,.14,.02,.28,.07,.42,.12,.17,.02,.33,.08,.47,.16,.27,.06,.56,.16,.76,.29,.12,.07,.25,.16,.35,.26,.18,.11,.35,.26,.46,.44,.2,.29,.41,.62,.6,.97,.2,.35,.39,.71,.59,1.09,.06,.11,.1,.24,.12,.36l.27,1.36c.08,.38,.19,.76,.34,1.13,.14,.34,.14,.71,0,1.04-.11,.3-.18,.52-.21,.68,.45,.17,.79,.59,.86,1.08,.18,1.32,.33,2.76,.42,4.31,.1,1.61,0,3.35-.28,5.18-.82,4.14-1.59,8.25-2.28,12.31-.68,4.08-1.4,8.19-2.13,12.31-.02,.15-.07,.29-.15,.42,.03,.16,.05,.32,.02,.47-.12,1.01-.27,2.01-.44,2.99-.01,.1-.02,.2-.03,.3-.15,1.12-.3,2.28-.5,3.47-.01,.08-.02,.17-.06,.24-.05,.14-.06,.26-.06,.38,0,.42-.08,.83-.21,1.25l-.07,.21v.32c0,.09-.01,.18-.02,.27l-.13,.69c-.09,.42-.15,.83-.19,1.24-.04,.48-.11,.96-.21,1.43-.16,1.94-.11,3.65,.14,5.06,.09,.83,.24,1.56,.44,2.25,.21,.72,.45,1.43,.7,2.11,.18,.37,.35,.71,.48,1.04,.09,.2,.18,.39,.29,.56l.3,.3c.12,.12,.23,.27,.29,.43,.1,.1,.2,.21,.29,.34,.21,.14,.38,.33,.5,.55l.03,.07c.61,.56,1.33,1.03,2.15,1.36h.01c.27,0,.53,.08,.76,.23,.06,.02,.1,.03,.15,.06h.2c.2,0,.54,.05,.73,.14h1.87c.39,0,.74-.01,1.06-.06,.35-.05,.72-.1,1.14-.19,.09-.01,.18-.02,.28-.02,.11-.06,.2-.1,.32-.12,.19-.1,.42-.16,.64-.16,0,0,.1,0,.34-.12,.06-.03,.12-.06,.19-.08,.18-.06,.38-.15,.61-.25,.1-.08,.23-.17,.38-.24,.06-.05,.12-.09,.2-.12l.07-.03c.11-.11,.26-.2,.41-.27,.09-.09,.26-.26,.52-.38,.24-.23,.43-.37,.62-.47,0-.01,.03-.05,.08-.09,.82-.82,1.67-2.01,2.51-3.54,.32-.64,.64-1.39,.96-2.16,.3-.81,.6-1.66,.85-2.5,.53-1.84,.94-3.77,1.2-5.71,.01-.08,.03-.17,.06-.25,.05-.14,.07-.26,.07-.38,0-.35,.06-.68,.15-.97,.03-.53,.14-1.13,.32-1.85,.06-.39,.12-.91,.17-1.43,.05-.61,.17-1.24,.37-1.86,.17-1.06,.35-2.14,.53-3.25,.18-1.15,.36-2.28,.55-3.38,.36-2.28,.73-4.54,1.09-6.79l1.1-6.8c.19-.8,.36-1.79,.54-3.07,.19-1.4,.38-2.46,.57-3.24,.01-.05,.02-.09,.05-.13,1.08-2.97,2.01-6,2.77-9.01,.77-3.02,1.43-6.11,1.97-9.18,.09-.53,.5-.96,1.03-1.09,.11-.03,.23-.04,.34-.04,.38,0,.75,.16,1.02,.45,.03-.01,.08-.02,.12-.03,.53-.17,1.03-.26,1.51-.26,.42,0,.81,.07,1.19,.2,1.04,.37,1.66,1.4,1.87,3.04,.02,.18,.03,.36,.03,.56,.36-.74,.73-1.43,1.1-2.05,1.31-2.2,2.56-3.54,3.84-4.13,.47-.21,.94-.32,1.38-.32,1.15,0,2.15,.7,2.78,2.01,.67,1.39,.89,3.68,.69,7.2-.28,3.53-.78,7.34-1.47,11.35-.69,3.98-1.4,8.13-2.13,12.44-.46,2.15-.88,4.28-1.23,6.38-.37,2.15-.73,4.33-1.1,6.53-.18,1.1-.36,2.18-.55,3.24-.17,1.01-.35,2.05-.53,3.11,0,.32-.03,.62-.08,.94-.03,.19-.06,.39-.06,.6s-.05,.41-.14,.59v.24c0,.14,0,.47-.15,.83,0,.03-.01,.06-.01,.08-.08,.51-.15,1.04-.19,1.59-.05,.64-.12,1.25-.21,1.84-.2,.9-.38,1.74-.56,2.6-.18,.87-.36,1.76-.55,2.66-.49,1.95-1.05,3.8-1.7,5.57-.77,2.01-1.68,3.92-2.72,5.72-1.26,2.04-2.76,3.92-4.48,5.64s-3.81,3.28-6.21,4.62c-2.5,1.35-5.12,2.32-7.8,2.9-.61,.18-1.3,.33-1.93,.43l-1.87,.28c-.34,.05-.67,.01-.92,.06-.37,.06-.77,.09-1.19,.09h-3.71c-.11,0-.23-.01-.34-.05l-.63-.09c-.06,0-.12,0-.19-.01l-1.32-.12c-.11,0-.23-.02-.34-.05l-.39-.1c-.26-.01-.5-.06-.72-.14-.21,0-.47-.05-.67-.14-.26-.02-.53-.09-.81-.21l-.29-.07c-.33-.03-.59-.12-.79-.24-.35-.09-.76-.21-1.23-.37-.52-.18-.94-.3-1.27-.38-.15-.05-.3-.1-.43-.19-.08-.06-.33-.19-.91-.39-.06-.02-.12-.05-.18-.07l-.27-.15c-.06-.02-.1-.05-.15-.08l-.81-.46c-.92-.52-1.75-1.03-2.5-1.54s-1.5-1.05-2.24-1.61c-.05-.02-.08-.06-.11-.09-1.23-1.14-2.44-2.44-3.57-3.87l-.39-.52c-.11-.12-.21-.27-.28-.42-.25-.26-.45-.54-.59-.83l-.18-.35c-.25-.28-.42-.56-.51-.85-.03-.08-.08-.19-.13-.32l-.73-1.34c-.03-.06-.07-.1-.09-.15l-.27-.55c-.14-.27-.25-.55-.32-.85-.02-.07-.06-.17-.1-.27-.12-.24-.21-.45-.28-.64-.02-.09-.08-.19-.13-.32l-.12-.26c-.1-.19-.16-.41-.16-.62l-.06-.35c-.21-.45-.35-.89-.41-1.32-.02-.17-.1-.37-.21-.6-.09-.19-.15-.41-.15-.62-.07-.26-.11-.51-.12-.78l-.1-.41c-.02-.09-.05-.18-.05-.28-.07-.12-.1-.27-.12-.42-.37-2.82-.52-5.57-.43-8.2,.01-.1,.02-.19,.05-.28,.07-.27,.09-.5,.09-.7,0-.38,.06-.79,.15-1.2v-.8c0-.2,.05-.41,.12-.59,0,0,0,0,0,0-.02,0,.01-.12,.01-.37,0-.2,.05-.41,.12-.6,0,0,.01-.12,.01-.37,0-.15,.02-.29,.07-.43l.2-.62v-.32c0-.16,.03-.3,.08-.45,.01-.1,.03-.2,.07-.3,0-.12,.02-.25,.07-.37l.1-.32,1.08-6.48c.46-2.24,.9-4.42,1.31-6.56,.42-2.16,.86-4.31,1.32-6.43,.35-1.52,.64-3.27,.87-5.22,.23-2.02,.48-4.05,.76-6.08,.18-1.88,.42-3.72,.7-5.39,.29-1.78,.7-3.09,1.22-3.98,.47-1.1,1.09-2.23,2.14-2.5,.23-.06,.47-.08,.71-.08,.44,0,.9,.09,1.38,.28,.2,.09,.37,.21,.52,.36,.09,.02,.19,.06,.28,.11,.12,.06,.26,.12,.38,.18,.02-.23,.07-.45,.12-.65,.01-.07,.03-.12,.06-.18,.12-.33,.21-.71,.25-1.12,.05-.62,.14-1.15,.24-1.59,.03-.12,.08-.24,.15-.35,.73-1.32,1.42-2.3,2.05-2.97-.02-.11-.03-.23-.03-.34,0-.36,.14-.71,.41-.98,.27-.27,.63-.41,.98-.41m0-3.38c-1.28,0-2.47,.5-3.38,1.4-.67,.67-1.11,1.5-1.3,2.4-.55,.72-1.11,1.58-1.67,2.59-.2,.35-.36,.72-.47,1.13-.01,.04-.02,.08-.03,.13-.49,0-.97,.06-1.44,.18-2.72,.7-3.9,3.17-4.38,4.29-.68,1.24-1.18,2.86-1.52,4.93-.29,1.7-.53,3.58-.72,5.55-.33,2.44-.56,4.32-.76,6.09-.21,1.79-.48,3.42-.8,4.84-.48,2.18-.93,4.37-1.34,6.54-.35,1.86-.75,3.87-1.3,6.52,0,.04-.02,.08-.02,.13l-1.04,6.24v.04c-.11,.28-.18,.57-.22,.86-.01,.06-.03,.12-.04,.18-.08,.31-.13,.62-.14,.92l-.04,.13c-.14,.41-.22,.85-.23,1.3-.08,.32-.12,.64-.13,.96-.09,.38-.14,.76-.14,1.15v.46c-.09,.51-.14,.99-.15,1.45-.07,.3-.1,.54-.11,.68,0,.09-.02,.18-.02,.27-.1,2.8,.06,5.74,.46,8.76,0,.02,0,.05,.01,.07,.04,.27,.1,.52,.17,.75,.02,.11,.04,.19,.06,.26l.03,.13c.03,.25,.07,.5,.12,.75,.06,.51,.2,1.01,.41,1.49,.09,.48,.22,.96,.41,1.43,.07,.54,.23,1.08,.48,1.57l.1,.22v.02c.11,.27,.22,.54,.35,.8,.12,.43,.29,.86,.51,1.3l.26,.53c.07,.13,.13,.25,.21,.37l.61,1.11,.02,.04c.19,.52,.46,1.02,.82,1.49,.22,.46,.51,.9,.85,1.31,.13,.2,.26,.39,.42,.57l.33,.43s.03,.04,.05,.06c1.21,1.52,2.52,2.94,3.89,4.21,.13,.12,.3,.28,.52,.43,.69,.52,1.43,1.05,2.26,1.62,.84,.58,1.74,1.13,2.76,1.71l.7,.4c.13,.08,.27,.16,.42,.23l.16,.09c.11,.06,.23,.12,.35,.16,.06,.02,.13,.05,.19,.07,.05,.02,.09,.03,.14,.05,.14,.05,.23,.08,.29,.11,.44,.28,.87,.43,1.17,.52,.07,.02,.15,.04,.23,.06,.16,.04,.45,.12,.93,.28,.45,.15,.82,.27,1.16,.36,.41,.18,.84,.3,1.29,.37,.32,.12,.64,.2,.97,.26,.32,.1,.62,.15,.88,.18,.25,.06,.5,.11,.76,.14l.12,.03c.06,.01,.12,.03,.17,.04,.16,.03,.44,.09,.79,.11l1.15,.11c.11,.01,.2,.02,.29,.03l.29,.04c.31,.07,.64,.1,.97,.1h3.71c.55,0,1.08-.04,1.63-.12h.06c.2,0,.51-.01,.87-.06,.02,0,.04,0,.06,0l1.87-.28c.58-.09,1.41-.25,2.26-.49,2.95-.64,5.84-1.72,8.58-3.2,2.7-1.51,5.04-3.25,7-5.21,1.9-1.9,3.57-4.01,4.96-6.25,.02-.03,.03-.06,.05-.09,1.13-1.96,2.12-4.04,2.95-6.2,.7-1.9,1.31-3.89,1.82-5.96,0-.04,.02-.08,.03-.11,.13-.62,.26-1.24,.38-1.84l.17-.83c.18-.85,.35-1.67,.55-2.55,.02-.07,.03-.15,.04-.23,.12-.79,.2-1.46,.25-2.12,.03-.33,.07-.71,.13-1.11,.16-.53,.2-.99,.22-1.3,.09-.37,.14-.76,.14-1.15,0-.04,.02-.08,.02-.12,.04-.29,.09-.67,.11-1.09l.14-.81c.12-.7,.24-1.39,.35-2.07,.19-1.03,.37-2.12,.55-3.25l.37-2.18c.24-1.45,.49-2.89,.73-4.32,.32-1.94,.72-3.98,1.2-6.25,.01-.05,.02-.09,.03-.14,.73-4.3,1.44-8.45,2.13-12.43,.71-4.16,1.22-8.08,1.5-11.66,0-.02,0-.05,0-.08,.24-4.17-.07-6.9-1.02-8.86-1.18-2.46-3.35-3.93-5.83-3.93-.93,0-1.86,.21-2.77,.62-1.26,.58-2.41,1.5-3.52,2.83-.29-.16-.56-.27-.8-.36-.73-.27-1.52-.4-2.33-.4-.38,0-.76,.03-1.15,.09-.48-.16-.98-.24-1.5-.24-.39,0-.78,.05-1.16,.14-1.84,.47-3.23,1.96-3.54,3.81-.52,2.95-1.17,5.96-1.92,8.91-.75,2.95-1.64,5.84-2.64,8.59-.1,.24-.15,.44-.19,.58-.23,.92-.44,2.09-.64,3.58-.17,1.23-.33,2.1-.48,2.74-.02,.08-.04,.16-.05,.25l-1.1,6.8-.41,2.52c-.23,1.42-.46,2.85-.69,4.28-.19,1.07-.37,2.22-.55,3.39l-.19,1.13c-.1,.63-.21,1.25-.3,1.86-.24,.79-.38,1.59-.44,2.39-.02,.28-.07,.64-.12,1.04-.17,.69-.28,1.32-.34,1.9-.1,.4-.15,.8-.18,1.21-.04,.18-.08,.34-.1,.51-.24,1.78-.61,3.54-1.1,5.24-.19,.66-.44,1.39-.75,2.21-.28,.7-.56,1.31-.81,1.83-.75,1.34-1.36,2.13-1.77,2.57-.15,.1-.29,.22-.44,.34-.19,.12-.36,.25-.51,.37-.1,.06-.2,.13-.3,.2-.04,.02-.08,.05-.12,.07-.12,.06-.23,.13-.32,.19-.08,.02-.18,.06-.29,.11-.33,.06-.66,.15-.98,.28-.05,0-.11,.02-.16,.03-.33,.07-.63,.11-.86,.14-.15,.02-.34,.03-.63,.03h-1.39c-.22-.05-.43-.08-.61-.1-.25-.1-.52-.17-.78-.23-.18-.09-.34-.19-.49-.31-.2-.28-.43-.54-.69-.77-.16-.25-.35-.49-.56-.7-.12-.28-.26-.57-.41-.88v-.02c-.22-.58-.41-1.17-.59-1.75-.15-.52-.25-1.05-.32-1.66,0-.07-.02-.15-.03-.22-.19-1.07-.23-2.45-.11-4,.1-.5,.17-1.01,.22-1.56,.04-.37,.08-.64,.13-.87,0-.02,0-.04,.01-.06l.13-.69c.01-.07,.03-.15,.04-.22,.01-.1,.04-.28,.05-.49,.16-.55,.25-1.12,.28-1.67,.04-.16,.06-.31,.08-.44,.2-1.25,.36-2.44,.5-3.54v-.06s.03-.17,.03-.17v-.05c.18-1,.33-2.02,.45-3.03,.02-.14,.03-.28,.04-.42,.03-.11,.05-.23,.07-.34,.82-4.59,1.49-8.45,2.13-12.32,.65-3.83,1.41-7.94,2.26-12.2,0-.05,.02-.1,.03-.14,.32-2.1,.43-4.08,.31-5.9-.09-1.52-.24-3.05-.44-4.55-.08-.57-.25-1.1-.51-1.59,.03-.67-.08-1.36-.34-2-.07-.18-.13-.36-.16-.55l-.27-1.34c-.07-.38-.21-.81-.42-1.21-.23-.45-.45-.86-.67-1.25-.23-.41-.47-.81-.73-1.18-.31-.47-.71-.89-1.19-1.23-.21-.17-.43-.33-.66-.47-.48-.3-.98-.5-1.41-.62-.22-.09-.44-.16-.67-.22l-.05-.02c-.33-.17-.69-.31-1.05-.39-.68-.36-1.45-.55-2.23-.55h0Z"/>
      </g>
      <g>
        <path class="cls-1" d="M518.5,106.89c-.03-.14-.07-.27-.12-.39-.01-.17-.07-.33-.14-.49l-.28-.55c-.06-.1-.1-.2-.14-.3-.06-.18-.15-.39-.28-.65-.04-.09-.07-.18-.1-.27-.07-.27-.17-.55-.3-.81-.01-.03-.02-.07-.05-.1-.06-.19-.15-.39-.29-.6l-.21-.42c-.39-.8-.86-1.54-1.38-2.21-.45-.6-.95-1.25-1.5-1.98-.03-.06-.08-.1-.14-.15-.05-.06-.08-.08-.1-.11-.01,0-.01-.01-.01-.01-.12-.21-.29-.43-.58-.7l-1.77-1.78c-.06-.06-.1-.09-.16-.14l-.28-.21c-.12-.24-.32-.43-.54-.56-.07-.06-.16-.11-.24-.16-.17-.15-.32-.26-.45-.35-.01-.01-.1-.07-.26-.24-.29-.28-.6-.51-.92-.68-.01,0-.07-.03-.19-.16-.08-.08-.27-.26-.54-.39l-.55-.41c-.07-.06-.14-.1-.21-.14l-.55-.27-.18-.16c-.09-.08-.18-.16-.29-.21-2.93-1.7-6.16-3-9.56-3.86-2.25-.56-4.53-.97-6.79-1.21-2.24-.23-4.5-.35-6.76-.35h-.03c-4.66,.19-9.05,.81-13.06,1.83-2.27,.57-4.39,1.3-6.28,2.14-1.03,.47-2.01,.94-2.93,1.4-.99,.5-1.95,1.1-2.78,1.76-1.93,1.34-3.64,2.91-5.13,4.7-1.45,1.94-2.54,3.91-3.22,5.86-.05,.15-.07,.3-.07,.46,0,.12-.03,.41-.2,.94-.06,.14-.08,.29-.08,.44,0,.07-.01,.14-.02,.2-.08,.29-.11,.59-.11,.89v1.1c0,.5,.05,.89,.15,1.22,.01,.44,.07,.79,.18,1.09,.04,.19,.14,.42,.27,.71,.05,.23,.15,.48,.33,.74,.09,.29,.27,.61,.59,.92,.29,.29,.55,.52,.8,.67,.2,.16,.43,.28,.67,.35l.12,.07c.72,.35,1.59,.09,2.46-.39,.5-.21,.88-.56,1.13-1.04,.1-.12,.19-.26,.28-.41l.2-.21c.11-.1,.19-.23,.26-.36,.14-.26,.27-.5,.41-.71,.17-.18,.32-.37,.44-.58,.1-.1,.19-.23,.26-.36l.14-.27s.03-.07,.06-.1c.09-.11,.17-.24,.26-.39,.15-.17,.27-.34,.38-.52l.14-.14c.1-.09,.18-.19,.25-.3v.28c0,.3,.06,.56,.16,.78,.04,.28,.18,.55,.39,.76l.26,.26c.41,.41,.91,.64,1.49,.69,.47,.09,1.1,.15,1.97,.15,.52,0,.73,.05,.76,.05,.36,.24,.8,.28,1.21,.15,.41-.14,.73-.46,.87-.87,.14-.43,.28-.79,.42-1.07,.14-.17,.36-.41,.69-.7-.56,3.42-1.09,6.81-1.59,10.12-.64,4.26-1.29,8.55-1.93,12.86-.18,1.36-.38,2.69-.61,4-.2,1.13-.37,2.24-.54,3.34-.67,.39-1.25,.85-1.76,1.35-.65,.65-1.06,1.35-1.21,2.09-.01,.08-.02,.18-.02,.27,0,1.21,.64,2.27,1.93,3.16-.32,1.82-.61,3.65-.88,5.49-.32,2.13-.71,4.25-1.15,6.3-.01,.02-.01,.04-.01,.07-.08,.14-.12,.28-.15,.44-.18,1.24-.35,2.21-.54,2.99-.09,.55-.19,1.07-.27,1.57-.09,.47-.18,.96-.26,1.47-.2,.54-.33,1.14-.38,1.76-.03,.42-.11,.78-.25,1.12-.03,.09-.07,.18-.08,.28-.09,.54-.18,1.07-.27,1.56-.08,.45-.2,.91-.36,1.4-.03,.09-.06,.19-.07,.29-.21,2.07,.24,3.92,1.35,5.48,.11,.17,.27,.3,.44,.39-.06,.43,.09,.85,.39,1.15,.29,.3,.61,.7,.92,1.17,.03,.06,.08,.1,.12,.16,1.03,1.14,2.28,1.86,3.71,2.14,.21,.05,.45,.07,.7,.07,1.14,0,2.6-.54,4.07-2.62,.17-.24,.26-.52,.26-.8,0-.12,.01-.27,.05-.46,.02-.15,.05-.28,.06-.41,.18,.07,.38,.15,.6,.24,.19,.07,.41,.1,.6,.09,.05,.02,.09,.05,.14,.06,1.61,.59,3.06,.14,3.92-1.16,.41-.54,.69-1.3,.87-2.3,.15-.81,.27-1.76,.36-2.92,0-.12,.02-.27,.06-.47,.06-.36,.09-.67,.09-.9,0-.83,.06-1.07,.06-1.07,.06-.14,.08-.29,.08-.44,0-.83,.11-1.56,.35-2.21,.74-2.4,1.4-4.94,1.95-7.53l1.44-6.72c.3-.03,.68,0,.98-.16,.32,0,.61-.05,.89-.14h.42c.21,0,.42-.05,.6-.14,.2-.01,.49-.03,.71-.14,.32,0,.63-.06,.91-.15,.17-.02,.37-.06,.59-.14h.35c.16,0,.3-.02,.44-.07,.69-.23,1.27-.34,1.76-.34,.07,0,.14-.01,.2-.01,1.96-.28,3.99-.71,6.01-1.27,2.02-.56,4.04-1.32,5.99-2.25l.74-.25c.2-.07,.39-.18,.54-.33l.15-.08c.2-.07,.33-.15,.47-.29,.56-.09,1.04-.33,1.42-.71l1.72-.99c.27-.14,.45-.26,.6-.37,.02-.01,.06-.02,.09-.05,.12-.07,.25-.15,.36-.26,.1-.1,.21-.19,.35-.27,.25-.16,.52-.33,.89-.58l1.15-.9c.35-.23,.79-.61,1.39-1.21l.46-.35c.06-.05,.11-.09,.16-.14l.48-.5c1.74-1.53,3.19-3.28,4.35-5.2,1.41-1.89,2.53-3.78,3.29-5.6,.74-1.77,1.36-3.79,1.84-6.02,.09-.25,.16-.53,.18-.82,.08-.25,.12-.53,.15-.83,.09-.32,.14-.68,.14-1.09l.07-.25c.05-.15,.08-.29,.08-.44v-1.51c0-.19,.01-.35,.03-.5,.07-.32,.1-.65,.1-1.03,0-2.92-.47-5.84-1.4-8.67Zm-18.14,11.97l-.07,.25c-.04,.14-.07,.29-.07,.44l-.07,.38c-.03,.1-.06,.21-.07,.33-.07,.88-.36,1.7-.88,2.53-.06,.09-.1,.18-.14,.27-.3,.82-.74,1.66-1.33,2.49-.26,.21-.49,.5-.7,.86l-1.08,1.09c-.07,.07-.12,.14-.18,.21l-.06,.1c-.18,.11-.33,.25-.45,.37-.38,.38-.79,.71-1.22,.98-.54,.35-1.06,.72-1.47,1.05l-.54,.36c-.23,.06-.45,.18-.62,.36l-.19,.05c-.15,.05-.29,.1-.43,.19l-.16,.1c-.2,.07-.38,.19-.54,.35-.28,.14-.58,.27-.87,.39-.01,.01-.03,.01-.05,.02-.17,0-.35,.05-.51,.11-1.67,.73-3.64,1.31-5.9,1.74l.68-3.74c.19-1.54,.37-3.08,.55-4.59l.56-4.69c.17-3.11,.6-6.23,1.27-9.27,.59-2.66,1.06-5.29,1.42-7.84,.26,.02,.52,.04,.77,.06,.54,.05,1.09,.14,1.65,.3,2.48,.68,4.44,1.57,5.93,2.69,1.42,.96,2.6,2.39,3.46,4.17,.16,.41,.3,.86,.43,1.33,.15,.59,.32,1.17,.47,1.65,.19,.78,.24,1.23,.24,1.45,0,.08,.01,.16,.02,.23l.11,.72v2.49Z"/>
        <path d="M482.62,85.87c2.27,0,4.52,.12,6.76,.35,2.25,.24,4.53,.64,6.79,1.21,3.41,.86,6.63,2.15,9.56,3.86,.11,.06,.2,.14,.29,.21l.18,.16,.55,.27c.08,.03,.15,.08,.21,.13l.55,.41c.27,.13,.46,.32,.54,.39,.12,.12,.18,.16,.19,.16,.33,.17,.63,.39,.92,.68,.16,.17,.25,.23,.26,.24,.14,.09,.28,.2,.45,.35,.08,.05,.17,.1,.24,.16,.23,.13,.42,.33,.54,.56l.28,.21c.06,.05,.1,.08,.16,.13l1.77,1.78c.28,.27,.45,.49,.58,.7,0,0,0,.01,.01,.01,.02,.03,.06,.06,.1,.11,.06,.05,.1,.09,.13,.15,.55,.73,1.05,1.39,1.5,1.98,.52,.67,.98,1.41,1.38,2.21l.21,.42c.15,.2,.24,.41,.29,.6,.02,.03,.03,.07,.05,.1,.14,.26,.24,.54,.3,.81,.03,.09,.06,.18,.1,.27,.14,.26,.23,.47,.28,.65,.03,.1,.08,.2,.14,.3l.28,.55c.07,.16,.12,.32,.14,.49,.06,.12,.09,.26,.12,.39,.92,2.83,1.4,5.75,1.4,8.67,0,.37-.03,.71-.1,1.03-.02,.15-.03,.3-.03,.5v1.51c0,.15-.03,.29-.08,.44l-.07,.25c0,.42-.05,.78-.14,1.09-.02,.3-.07,.59-.15,.83-.02,.29-.09,.58-.18,.82-.47,2.23-1.09,4.25-1.84,6.02-.77,1.83-1.88,3.71-3.29,5.6-1.16,1.92-2.62,3.66-4.35,5.2l-.48,.5s-.1,.09-.16,.14l-.46,.35c-.6,.6-1.04,.98-1.39,1.21l-1.15,.9c-.37,.25-.64,.42-.89,.57-.13,.08-.25,.17-.35,.27-.11,.11-.24,.19-.36,.26-.03,.02-.07,.03-.09,.05-.15,.11-.33,.24-.6,.37l-1.72,.99c-.38,.38-.86,.62-1.42,.71-.15,.15-.27,.23-.47,.29l-.15,.08c-.15,.15-.34,.26-.54,.33l-.74,.25c-1.95,.94-3.97,1.69-5.99,2.25s-4.05,.99-6.01,1.27c-.07,0-.14,.01-.2,.01-.49,0-1.07,.11-1.76,.34-.14,.04-.28,.07-.44,.07h-.35c-.21,.08-.42,.11-.59,.14-.28,.09-.6,.15-.91,.15-.23,.1-.51,.12-.71,.14-.18,.09-.38,.14-.6,.14h-.42c-.28,.09-.58,.14-.89,.14-.3,.16-.68,.12-.98,.16l-1.44,6.72c-.55,2.59-1.21,5.13-1.95,7.53-.24,.65-.35,1.38-.35,2.21,0,.15-.02,.3-.08,.44,0,0-.06,.24-.06,1.07,0,.24-.03,.54-.09,.9-.03,.2-.06,.35-.06,.47-.09,1.16-.21,2.11-.36,2.92-.18,1-.46,1.76-.87,2.3-.62,.92-1.52,1.41-2.57,1.41-.43,0-.88-.08-1.35-.25-.05-.01-.09-.03-.13-.06-.02,0-.05,0-.08,0-.17,0-.36-.03-.52-.09-.21-.09-.42-.17-.6-.24-.01,.12-.03,.26-.06,.41-.03,.19-.05,.34-.05,.46,0,.28-.09,.56-.26,.8-1.47,2.07-2.93,2.62-4.07,2.62-.25,0-.49-.02-.7-.07-1.43-.28-2.68-1-3.71-2.14-.04-.06-.09-.1-.12-.16-.32-.47-.63-.87-.92-1.17-.3-.3-.45-.72-.39-1.15-.17-.09-.33-.23-.44-.39-1.12-1.56-1.57-3.41-1.35-5.48,.01-.1,.03-.2,.07-.29,.16-.49,.28-.95,.36-1.4,.09-.49,.18-1.01,.27-1.56,.01-.1,.05-.19,.08-.28,.14-.34,.21-.7,.25-1.12,.06-.62,.18-1.22,.38-1.76,.08-.51,.17-.99,.26-1.47,.08-.5,.18-1.01,.27-1.57,.19-.78,.36-1.75,.54-2.99,.02-.16,.07-.3,.15-.44,0-.02,0-.05,.01-.07,.44-2.05,.83-4.17,1.15-6.3,.27-1.84,.56-3.68,.88-5.49-1.28-.89-1.93-1.95-1.93-3.16,0-.09,.01-.19,.02-.27,.15-.73,.55-1.43,1.21-2.09,.51-.51,1.09-.96,1.76-1.35,.17-1.09,.34-2.21,.54-3.34,.23-1.31,.43-2.64,.61-4,.64-4.32,1.29-8.6,1.93-12.86,.5-3.31,1.03-6.71,1.59-10.12-.33,.29-.55,.53-.69,.7-.14,.28-.28,.64-.42,1.07-.14,.41-.46,.73-.87,.87-.15,.05-.31,.08-.46,.08-.26,0-.52-.07-.75-.22-.02,0-.24-.05-.76-.05-.87,0-1.5-.06-1.97-.15-.58-.05-1.08-.28-1.49-.69l-.26-.26c-.21-.2-.35-.47-.39-.76-.1-.21-.16-.47-.16-.78v-.28c-.07,.11-.15,.21-.25,.3l-.14,.14c-.11,.18-.24,.35-.38,.52-.09,.16-.17,.28-.26,.39-.02,.03-.06,.1-.06,.1l-.14,.27c-.07,.13-.16,.26-.26,.36-.12,.2-.27,.39-.44,.58-.14,.21-.27,.45-.41,.71-.07,.14-.15,.26-.26,.36l-.2,.21c-.09,.15-.18,.28-.28,.41-.25,.47-.63,.82-1.13,1.04-.59,.33-1.18,.56-1.73,.56-.26,0-.5-.05-.73-.16l-.12-.07c-.24-.07-.46-.19-.67-.35-.25-.15-.51-.37-.8-.67-.32-.32-.5-.63-.59-.92-.18-.26-.28-.52-.33-.74-.14-.29-.23-.52-.27-.71-.11-.3-.17-.65-.18-1.09-.1-.33-.15-.72-.15-1.22v-1.1c0-.3,.03-.6,.11-.89,.01-.07,.02-.14,.02-.2,0-.15,.02-.3,.08-.44,.17-.53,.2-.81,.2-.94,0-.16,.02-.32,.07-.46,.69-1.95,1.77-3.92,3.22-5.86,1.49-1.79,3.2-3.36,5.13-4.7,.83-.65,1.79-1.26,2.78-1.76,.92-.46,1.91-.92,2.93-1.4,1.89-.85,4.01-1.57,6.28-2.14,4-1.02,8.4-1.64,13.06-1.83h.03m.17,48.02c2.25-.43,4.23-1,5.9-1.74,.16-.07,.34-.11,.51-.11,.01-.01,.03-.01,.05-.02,.29-.12,.59-.26,.87-.39,.16-.16,.34-.28,.54-.35l.16-.1c.14-.09,.28-.15,.43-.19l.19-.05c.17-.18,.39-.3,.62-.36l.54-.36c.41-.33,.92-.7,1.47-1.05,.43-.27,.83-.6,1.22-.98,.12-.12,.27-.26,.45-.37l.06-.1c.06-.08,.11-.15,.18-.21l1.08-1.09c.21-.36,.44-.64,.7-.86,.59-.83,1.03-1.67,1.33-2.49,.03-.09,.08-.18,.14-.27,.52-.82,.81-1.65,.88-2.53,.01-.11,.03-.23,.07-.33l.07-.38c0-.15,.02-.3,.07-.44l.07-.25v-2.49l-.11-.72c-.01-.07-.02-.15-.02-.23,0-.23-.05-.68-.24-1.45-.16-.47-.33-1.06-.47-1.65-.12-.47-.27-.92-.43-1.33-.86-1.78-2.04-3.21-3.46-4.17-1.49-1.13-3.45-2.02-5.93-2.69-.55-.17-1.1-.26-1.65-.3-.25-.01-.51-.03-.77-.06-.36,2.55-.83,5.17-1.42,7.84-.68,3.03-1.1,6.16-1.27,9.27l-.56,4.69c-.18,1.51-.36,3.04-.55,4.59l-.68,3.74m-.17-51.4h-.03s-.09,0-.14,0c-4.87,.2-9.5,.85-13.75,1.93-2.46,.62-4.76,1.41-6.83,2.33-1.28,.59-2.22,1.04-3.06,1.46-1.15,.57-2.28,1.29-3.28,2.06-2.15,1.5-4.07,3.27-5.72,5.26-.04,.04-.07,.09-.1,.13-1.66,2.21-2.9,4.48-3.71,6.77-.01,.04-.03,.09-.04,.13-.12,.39-.19,.79-.21,1.2,0,.03-.02,.05-.02,.08-.14,.38-.22,.79-.25,1.21-.1,.46-.15,.93-.15,1.43v1.1c0,.65,.05,1.21,.17,1.73,.04,.57,.14,1.08,.3,1.57,.09,.31,.2,.6,.31,.86,.12,.38,.28,.76,.48,1.11,.28,.66,.7,1.27,1.25,1.82,.46,.46,.87,.8,1.29,1.07,.39,.28,.8,.5,1.22,.66,.68,.33,1.42,.5,2.2,.5,1.04,0,2.11-.3,3.24-.91,1.03-.48,1.86-1.23,2.44-2.19,.04-.06,.08-.11,.12-.16,.12-.12,.23-.24,.33-.38,.51,.22,1.06,.37,1.63,.43,.59,.1,1.25,.16,2.02,.17-.19,1.25-.39,2.52-.58,3.8-.64,4.26-1.29,8.55-1.93,12.87-.18,1.34-.38,2.65-.6,3.93-.12,.65-.23,1.31-.33,1.96-.37,.29-.71,.59-1.03,.92-1.13,1.13-1.85,2.42-2.13,3.81-.01,.06-.02,.13-.03,.2-.04,.27-.06,.51-.06,.74,0,1.23,.33,2.86,1.67,4.41-.2,1.23-.4,2.48-.58,3.74-.27,1.86-.63,3.82-1.06,5.83-.12,.32-.2,.65-.25,.99-.17,1.19-.33,2.04-.48,2.66-.02,.09-.04,.18-.05,.26-.04,.25-.08,.49-.13,.72-.05,.28-.1,.54-.14,.8-.08,.4-.15,.8-.22,1.22-.23,.71-.39,1.47-.46,2.28-.01,.14-.02,.18-.02,.18,0,.02-.01,.03-.02,.05-.06,.16-.19,.51-.26,.97-.08,.5-.17,.99-.25,1.44-.05,.28-.13,.58-.24,.93-.11,.32-.19,.67-.23,1.02-.3,2.89,.37,5.58,1.94,7.78,0,.01,.02,.03,.03,.04,.22,.71,.61,1.37,1.15,1.92,.1,.1,.28,.32,.52,.67,.14,.21,.26,.36,.33,.43,.04,.05,.08,.09,.12,.14,1.51,1.67,3.43,2.78,5.57,3.2,.4,.08,.87,.13,1.35,.13,1.74,0,4.27-.65,6.56-3.67,.19,.02,.37,.02,.56,.02,2.15,0,4.09-1.03,5.33-2.84,.7-.96,1.17-2.15,1.44-3.66,.18-.98,.31-2.05,.4-3.26,0-.03,0-.06,0-.09l.02-.1c.09-.6,.14-1.05,.14-1.45,0-.19,0-.33,0-.42,.09-.35,.13-.72,.13-1.09,0-.44,.05-.78,.15-1.06,.02-.05,.04-.1,.05-.15,.76-2.47,1.45-5.1,2.03-7.83l.94-4.36c.28-.03,.56-.09,.83-.16,.18-.02,.37-.06,.57-.11,.35-.03,.69-.1,1.04-.19,.1-.02,.21-.04,.32-.06,.48-.01,.94-.09,1.38-.24,.49-.16,.7-.17,.71-.17h0c.11,0,.22,0,.33-.01,.12,0,.23-.02,.35-.03,2.12-.3,4.29-.76,6.44-1.37,2.16-.6,4.3-1.4,6.34-2.37l.55-.18c.45-.15,.88-.37,1.26-.64,.1-.05,.19-.1,.28-.15,.72-.23,1.38-.59,1.96-1.07l1.35-.77c.28-.14,.53-.3,.78-.47,.34-.19,.63-.41,.9-.65h.01c.24-.16,.51-.33,.86-.56,.07-.05,.14-.1,.21-.15l1.05-.82c.48-.33,.99-.76,1.62-1.39l.28-.21s.05-.04,.08-.06c.16-.13,.31-.26,.43-.38l.43-.44c1.89-1.69,3.51-3.62,4.83-5.76,1.55-2.1,2.76-4.18,3.6-6.19,.81-1.93,1.48-4.09,1.99-6.43,.11-.35,.19-.72,.24-1.08,.07-.28,.12-.58,.16-.9,.08-.37,.14-.75,.16-1.16,.11-.41,.16-.81,.16-1.2v-1.51c.09-.49,.14-.99,.14-1.53,0-3.23-.51-6.46-1.53-9.61-.02-.09-.05-.2-.09-.31-.09-.4-.21-.72-.31-.96-.03-.07-.06-.14-.1-.21l-.26-.52c-.09-.25-.2-.52-.33-.79-.11-.39-.25-.76-.42-1.11-.13-.37-.31-.72-.52-1.05l-.13-.24c-.47-.96-1.06-1.9-1.72-2.75l-.6-.79-.82-1.08c-.11-.15-.22-.29-.35-.43-.24-.33-.51-.66-.85-.98l-1.75-1.76c-.14-.14-.25-.24-.37-.33-.3-.37-.67-.7-1.07-.97-.06-.04-.12-.09-.19-.13-.11-.09-.22-.18-.33-.26,0,0-.02-.02-.02-.02-.41-.39-.85-.73-1.31-1.01-.27-.24-.56-.45-.87-.63l-.32-.24c-.26-.21-.54-.38-.83-.51l-.11-.05c-.17-.14-.4-.32-.71-.49-3.18-1.84-6.67-3.25-10.38-4.18-2.42-.6-4.86-1.04-7.26-1.29-2.43-.24-4.82-.37-7.12-.37h0Zm4.37,46.71c.1-.82,.2-1.63,.29-2.44l.1-.8,.56-4.69c0-.07,.02-.15,.02-.22,.16-2.94,.56-5.87,1.2-8.72,.34-1.52,.64-3.05,.91-4.56,1.45,.49,2.63,1.07,3.51,1.74,.05,.04,.1,.07,.15,.11,.88,.59,1.66,1.53,2.25,2.71,.1,.26,.19,.55,.26,.84,.14,.57,.32,1.19,.49,1.72,.08,.35,.11,.53,.11,.58,0,.3,.04,.55,.07,.72l.07,.44v1.78c-.06,.25-.1,.5-.12,.76h0c-.06,.25-.11,.5-.13,.75,0,.03,0,.06,0,.09-.02,.21-.07,.51-.37,.98-.18,.29-.33,.58-.44,.88-.18,.5-.43,.99-.75,1.48-.28,.28-.53,.59-.77,.95l-.83,.84c-.1,.1-.19,.2-.29,.31-.16,.13-.28,.26-.38,.36-.21,.21-.42,.38-.64,.52-.6,.39-1.17,.8-1.65,1.17l-.09,.06c-.23,.1-.45,.21-.66,.35-.28,.11-.55,.24-.79,.39-.27,.13-.54,.29-.79,.47-.01,0-.02,0-.03,.01-.3,.06-.6,.16-.89,.28-.12,.05-.24,.1-.36,.15h0Z"/>
      </g>
    </g>
  </g>
  <g>
    <g>
      <path class="cls-2" d="M329.27,2.25h-15.44l-24.15,47.97h12.46l4.84-10.07h16.57l1.48,10.07h12.46l-8.22-47.97Zm-18.06,29.1l8.17-17.01h.38l2.49,17.01h-11.05Z"/>
      <path d="M329.27,2.25l8.22,47.97h-12.46l-1.48-10.07h-16.57l-4.84,10.07h-12.46L313.84,2.25h15.44m-18.06,29.1h11.05l-2.49-17.01h-.38l-8.17,17.01M329.27,0h-15.44c-.85,0-1.63,.48-2.01,1.24l-24.15,47.97c-.35,.7-.32,1.53,.09,2.2,.41,.67,1.14,1.07,1.92,1.07h12.46c.87,0,1.66-.5,2.03-1.28l4.22-8.79h13.21l1.19,8.14c.16,1.11,1.11,1.93,2.23,1.93h12.46c.66,0,1.3-.29,1.72-.8,.43-.51,.61-1.18,.5-1.83L331.49,1.87c-.19-1.08-1.12-1.87-2.22-1.87h0Zm-14.48,29.1l3.72-7.74,1.13,7.74h-4.86Z"/>
    </g>
    <g>
      <path class="cls-2" d="M362.09,2.26l-7.96,47.97h-11.45l7.96-47.97h11.45Z"/>
      <path d="M362.09,2.26l-7.96,47.97h-11.45l7.96-47.97h11.45M362.09,0h-11.45c-1.1,0-2.04,.8-2.22,1.89l-7.96,47.97c-.11,.65,.08,1.32,.5,1.83,.43,.51,1.06,.8,1.72,.8h11.45c1.1,0,2.04-.8,2.22-1.89l7.96-47.97c.11-.65-.08-1.32-.5-1.83-.43-.51-1.06-.8-1.72-.8h0Z"/>
    </g>
    <g>
      <path class="cls-2" d="M361.46,50.23l6-35.98h10.89l-1.08,6.61h.4c1.09-2.19,2.63-3.91,4.63-5.18s4.23-1.9,6.71-1.9,4.51,.64,6.08,1.92c1.57,1.28,2.42,3,2.56,5.15h.37c1.02-2.14,2.6-3.85,4.77-5.14,2.16-1.29,4.58-1.93,7.25-1.93,3.37,0,5.95,1.09,7.72,3.27,1.77,2.18,2.34,5.16,1.7,8.96l-4.03,24.22h-11.45l3.65-21.6c.27-1.8,.01-3.17-.76-4.11-.77-.94-1.89-1.42-3.36-1.42-1.58,0-2.9,.51-3.96,1.53-1.06,1.02-1.72,2.39-1.97,4.11l-3.63,21.48h-11.01l3.68-21.71c.23-1.67-.02-2.99-.77-3.96-.75-.97-1.87-1.45-3.35-1.45-.98,0-1.9,.24-2.75,.71-.85,.48-1.56,1.15-2.12,2.03-.56,.87-.93,1.91-1.1,3.09l-3.61,21.29h-11.45Z"/>
      <path d="M410.04,13.78c3.37,0,5.95,1.09,7.72,3.27,1.77,2.18,2.34,5.16,1.7,8.96l-4.03,24.22h-11.45l3.65-21.6c.27-1.8,.01-3.17-.76-4.11-.77-.94-1.89-1.42-3.36-1.42-1.58,0-2.9,.51-3.96,1.53-1.06,1.02-1.72,2.39-1.97,4.11l-3.63,21.48h-11.01l3.68-21.71c.23-1.67-.02-2.99-.77-3.96-.75-.97-1.87-1.45-3.35-1.45-.98,0-1.9,.24-2.75,.71-.85,.48-1.56,1.15-2.12,2.03-.56,.87-.93,1.91-1.1,3.09l-3.61,21.29h-11.45l6-35.98h10.89l-1.08,6.61h.4c1.09-2.19,2.63-3.91,4.63-5.18,1.99-1.26,4.23-1.9,6.71-1.9s4.51,.64,6.08,1.92c1.57,1.28,2.42,3,2.56,5.15h.37c1.02-2.14,2.6-3.85,4.77-5.14,2.16-1.29,4.58-1.93,7.25-1.93m0-2.25c-3.07,0-5.9,.76-8.4,2.25-1.18,.7-2.22,1.52-3.11,2.45-.53-.84-1.2-1.6-2.01-2.27-1.97-1.61-4.5-2.43-7.5-2.43s-5.57,.76-7.92,2.25c-.17,.1-.33,.21-.49,.32-.03-.48-.22-.94-.53-1.31-.43-.5-1.06-.79-1.72-.79h-10.89c-1.1,0-2.04,.8-2.22,1.88l-6,35.98c-.11,.65,.07,1.32,.5,1.83,.43,.51,1.06,.8,1.72,.8h11.45c1.1,0,2.04-.79,2.22-1.88l3.61-21.29c.13-.91,.39-1.65,.77-2.25,.36-.57,.8-.98,1.32-1.28,.51-.29,1.06-.43,1.65-.43,1.12,0,1.43,.4,1.57,.58,.36,.46,.47,1.21,.33,2.24l-3.67,21.68c-.11,.65,.07,1.32,.5,1.83,.43,.51,1.06,.8,1.72,.8h11.01c1.1,0,2.04-.79,2.22-1.88l3.63-21.48c.19-1.27,.61-2.19,1.31-2.86,.64-.62,1.4-.9,2.4-.9s1.39,.32,1.62,.59c.34,.42,.44,1.25,.28,2.35l-3.65,21.55c-.11,.65,.07,1.32,.5,1.83,.43,.51,1.06,.8,1.72,.8h11.45c1.1,0,2.04-.8,2.22-1.89l4.03-24.22c.75-4.44,.02-8.06-2.17-10.75-2.21-2.72-5.4-4.1-9.47-4.1h0Z"/>
    </g>
    <g>
      <path class="cls-2" d="M432.52,50.84c-2.28,0-4.24-.39-5.89-1.16s-2.85-1.95-3.62-3.53c-.77-1.58-.95-3.54-.54-5.9,.33-2,.96-3.68,1.9-5.05,.94-1.37,2.09-2.48,3.46-3.34,1.37-.86,2.89-1.51,4.58-1.97,1.69-.45,3.45-.76,5.29-.91,2.06-.19,3.74-.39,5.02-.61,1.29-.22,2.26-.52,2.9-.91,.65-.39,1.03-.95,1.16-1.69v-.12c.19-1.2-.07-2.13-.77-2.79-.7-.66-1.76-.98-3.16-.98-1.5,0-2.78,.32-3.84,.97-1.06,.65-1.81,1.56-2.25,2.73l-10.47-.37c.65-2.19,1.78-4.14,3.37-5.87,1.59-1.73,3.62-3.08,6.08-4.08,2.46-.99,5.31-1.49,8.54-1.49,2.28,0,4.34,.27,6.18,.81,1.84,.54,3.4,1.32,4.67,2.34,1.27,1.02,2.18,2.28,2.73,3.76,.55,1.48,.66,3.18,.33,5.08l-4.08,24.45h-10.77l.84-5.01h-.28c-.84,1.22-1.83,2.25-2.96,3.09-1.13,.84-2.4,1.48-3.81,1.9-1.41,.42-2.94,.63-4.61,.63Zm4.8-7.5c1.23,0,2.38-.25,3.46-.75,1.07-.5,1.98-1.19,2.72-2.07s1.21-1.91,1.42-3.08l.54-3.42c-.33,.17-.74,.32-1.24,.46s-1.03,.26-1.59,.39c-.56,.13-1.14,.24-1.73,.33-.59,.09-1.16,.19-1.69,.28-1.11,.17-2.08,.44-2.9,.8-.83,.36-1.49,.82-1.98,1.39-.49,.57-.8,1.24-.93,2.03-.17,1.17,.11,2.07,.84,2.71s1.76,.95,3.09,.95Z"/>
      <path d="M444.28,13.78c2.28,0,4.34,.27,6.18,.81,1.84,.54,3.4,1.32,4.67,2.34,1.27,1.02,2.18,2.28,2.73,3.76,.55,1.48,.66,3.18,.33,5.08l-4.08,24.45h-10.77l.84-5.01h-.28c-.84,1.22-1.83,2.25-2.96,3.09-1.13,.84-2.4,1.48-3.81,1.9-1.41,.42-2.94,.63-4.61,.63-2.28,0-4.24-.39-5.89-1.16-1.65-.77-2.85-1.95-3.62-3.53-.77-1.58-.95-3.54-.54-5.9,.33-2,.96-3.68,1.9-5.05,.94-1.37,2.09-2.48,3.46-3.34,1.37-.86,2.89-1.51,4.58-1.97,1.69-.45,3.45-.76,5.29-.91,2.06-.19,3.74-.39,5.02-.61,1.29-.22,2.26-.52,2.9-.91,.65-.39,1.03-.95,1.16-1.69v-.12c.19-1.2-.07-2.13-.77-2.79-.7-.66-1.76-.98-3.16-.98-1.5,0-2.78,.32-3.84,.97-1.06,.65-1.81,1.56-2.25,2.73l-10.47-.37c.66-2.19,1.78-4.14,3.37-5.87,1.59-1.72,3.62-3.08,6.08-4.08,2.46-.99,5.3-1.49,8.54-1.49m1.17,20.24c-.33,.17-.74,.32-1.24,.46-.5,.13-1.03,.26-1.59,.39-.56,.13-1.14,.24-1.73,.33-.59,.09-1.16,.19-1.69,.28-1.11,.17-2.08,.44-2.9,.8-.83,.36-1.49,.82-1.98,1.39-.49,.57-.8,1.24-.92,2.03-.17,1.17,.11,2.07,.84,2.71s1.76,.95,3.09,.95c1.23,0,2.38-.25,3.46-.75,1.07-.5,1.97-1.19,2.72-2.07,.74-.88,1.21-1.91,1.42-3.08l.54-3.42m-1.17-22.49c-3.51,0-6.66,.56-9.38,1.65-2.76,1.11-5.08,2.67-6.89,4.64-1.82,1.97-3.12,4.24-3.88,6.75-.2,.67-.08,1.39,.33,1.96,.41,.57,1.05,.91,1.75,.94l5.78,.21c-.06,.01-.12,.03-.17,.05-1.9,.51-3.65,1.26-5.2,2.24-1.63,1.02-3.01,2.36-4.12,3.97-1.12,1.64-1.88,3.64-2.26,5.96-.48,2.8-.24,5.25,.74,7.25,.99,2.05,2.57,3.59,4.69,4.58,1.94,.91,4.25,1.37,6.85,1.37,1.88,0,3.65-.24,5.26-.73,1.21-.36,2.35-.87,3.4-1.5,.09,.3,.24,.58,.44,.82,.43,.51,1.06,.8,1.72,.8h10.77c1.1,0,2.04-.8,2.22-1.88l4.08-24.45c.39-2.28,.25-4.38-.44-6.23-.69-1.87-1.84-3.46-3.43-4.74-1.5-1.2-3.33-2.13-5.45-2.75-2.04-.6-4.34-.9-6.82-.9h0Zm-5.51,15.09c.04-.08,.07-.16,.11-.24,.26-.7,.68-1.21,1.31-1.59,.71-.43,1.58-.64,2.67-.64,.77,0,1.37,.14,1.62,.38,.15,.14,.13,.51,.09,.79,0,.05-.01,.11-.02,.17,0,0-.03,.03-.07,.05-.23,.14-.81,.4-2.12,.62-.95,.16-2.15,.32-3.58,.46h0Zm-1.44,14.47c-.53,0-1.24-.07-1.62-.4-.04-.04-.16-.14-.08-.67,.05-.34,.18-.63,.4-.88,.27-.31,.66-.58,1.17-.8,.65-.28,1.44-.49,2.35-.63,.57-.1,1.12-.19,1.69-.28,.49-.08,.97-.17,1.44-.26-.14,.72-.43,1.35-.9,1.91-.53,.63-1.17,1.12-1.95,1.48-.77,.36-1.59,.54-2.5,.54h0Z"/>
    </g>
    <g>
      <path class="cls-2" d="M476.79,38.92c-.1,.7-.09,1.26,.06,1.69,.16,.43,.43,.73,.85,.91,.42,.18,.92,.27,1.53,.27,.43,0,.89-.04,1.41-.14,.52-.1,.9-.17,1.17-.21l.39,8.26c-.62,.18-1.44,.37-2.47,.6-1.03,.23-2.21,.37-3.57,.44-2.75,.11-5.02-.23-6.82-.98-1.79-.77-3.06-1.95-3.78-3.55-.72-1.6-.87-3.61-.41-6.03l2.9-17.5h-4.78l1.43-8.43h4.74l1.43-8.63h11.44l-1.43,8.63h6.52l-1.42,8.43h-6.49l-2.69,16.24Z"/>
      <path d="M482.32,5.63l-1.43,8.63h6.52l-1.42,8.43h-6.49l-2.69,16.24c-.1,.7-.09,1.26,.06,1.69,.16,.43,.43,.73,.85,.91s.92,.27,1.53,.27c.43,0,.89-.04,1.41-.13,.52-.1,.9-.17,1.17-.21l.39,8.26c-.62,.18-1.44,.37-2.47,.6-1.03,.23-2.21,.37-3.57,.44-.34,.01-.68,.02-1.01,.02-2.3,0-4.23-.34-5.81-1-1.79-.77-3.06-1.95-3.78-3.55-.72-1.6-.87-3.61-.41-6.03l2.9-17.5h-4.78l1.43-8.43h4.74l1.43-8.63h11.44m0-2.25h-11.44c-1.1,0-2.04,.8-2.22,1.89l-1.12,6.74h-2.82c-1.1,0-2.04,.79-2.22,1.88l-1.43,8.43c-.11,.66,.07,1.33,.5,1.83,.43,.51,1.06,.8,1.72,.8h2.12l-2.46,14.88c-.53,2.8-.34,5.29,.58,7.33,.96,2.12,2.62,3.7,4.95,4.7,1.88,.79,4.13,1.18,6.7,1.18,.36,0,.73,0,1.1-.02,1.51-.07,2.8-.24,3.97-.49,.92-.2,1.88-.42,2.62-.64,1-.29,1.67-1.23,1.62-2.27l-.39-8.26c-.03-.64-.33-1.24-.83-1.65-.4-.33-.91-.5-1.42-.5-.12,0-.24,0-.37,.03-.29,.05-.69,.12-1.24,.23-.34,.06-.68,.09-.97,.09-.09,0-.17,0-.24,0,0-.08,.02-.18,.03-.29l2.37-14.31h4.58c1.1,0,2.04-.79,2.22-1.88l1.42-8.43c.11-.65-.07-1.32-.5-1.83-.43-.51-1.06-.8-1.72-.8h-3.86l1-6c.11-.65-.08-1.32-.5-1.83-.43-.51-1.06-.8-1.72-.8h0Z"/>
    </g>
    <g>
      <path class="cls-2" d="M492.06,63.72c-1.39,0-2.67-.11-3.84-.32-1.17-.21-2.18-.49-3.02-.83l3.94-8.32c1.06,.37,2.03,.59,2.92,.64,.88,.06,1.68-.1,2.39-.46,.71-.36,1.33-.98,1.86-1.87l.66-1.08-6.58-37.24h11.57l2.34,25.7h.37l11.01-25.7h12.48l-20.1,39.42c-1,1.97-2.22,3.7-3.65,5.21-1.44,1.51-3.17,2.69-5.2,3.55-2.03,.86-4.41,1.29-7.14,1.29Z"/>
      <path d="M528.16,14.25l-20.1,39.42c-1,1.97-2.22,3.7-3.65,5.21-1.44,1.51-3.17,2.69-5.2,3.55-2.03,.86-4.41,1.29-7.14,1.29-1.39,0-2.67-.11-3.84-.32-1.17-.21-2.18-.49-3.02-.83l3.94-8.32c1.06,.37,2.03,.59,2.92,.64,.12,0,.23,.01,.35,.01,.75,0,1.43-.16,2.04-.47,.71-.36,1.33-.98,1.86-1.87l.66-1.08-6.58-37.24h11.57l2.34,25.7h.37l11.01-25.7h12.48m0-2.25h-12.48c-.9,0-1.72,.54-2.07,1.37l-7.81,18.23-1.6-17.54c-.11-1.16-1.08-2.05-2.25-2.05h-11.57c-.67,0-1.3,.3-1.73,.81-.43,.51-.61,1.18-.49,1.84l6.43,36.41-.21,.35c-.31,.52-.64,.88-.95,1.03-.3,.15-.64,.23-1.03,.23-.07,0-.14,0-.21,0-.67-.04-1.45-.22-2.31-.52-.25-.09-.5-.13-.75-.13-.85,0-1.66,.48-2.04,1.29l-3.94,8.32c-.27,.56-.29,1.2-.06,1.78s.68,1.04,1.25,1.27c.98,.4,2.15,.72,3.47,.96,1.3,.23,2.73,.35,4.24,.35,3.02,0,5.72-.49,8.02-1.47,2.31-.98,4.31-2.34,5.95-4.07,1.58-1.66,2.94-3.59,4.03-5.75l20.1-39.42c.36-.7,.32-1.53-.09-2.2-.41-.67-1.14-1.08-1.92-1.08h0Z"/>
    </g>
  </g>
</svg>